<?xml version="1.0" encoding="utf-8"?>
<!-- Generator: Adobe Illustrator 22.0.1, SVG Export Plug-In . SVG Version: 6.00 Build 0)  -->
<svg version="1.1" id="Ebene_1" xmlns="http://www.w3.org/2000/svg" xmlns:xlink="http://www.w3.org/1999/xlink" x="0px" y="0px"
	 viewBox="0 0 85 85" style="enable-background:new 0 0 85 85;" xml:space="preserve">
<style type="text/css">
	.st0{fill:url(#SVGID_1_);}
	.st1{fill:#FFFFFF;}
</style>
<g>
	<linearGradient id="SVGID_1_" gradientUnits="userSpaceOnUse" x1="66.4051" y1="23.505" x2="22.0303" y2="67.8798">
		<stop  offset="0.2574" style="stop-color:#FF3A3A"/>
		<stop  offset="0.7525" style="stop-color:#FF703A"/>
	</linearGradient>
	<path class="st0" d="M23.8,24.8c-2.9,3.6-9,10.8-10.7,22.7c-2,17.8,20,32.5,38.1,28.4c22.4-5.1,21.5-44.2,18.3-45.1
		c-2-0.6-4,4.9-6.9,3.6c-2.2-1.2-2.7-5.3-2.7-8.2c0-1.4-0.1-2.3-0.4-3.6c-1.1-4.8-3.5-9.2-6.9-12.8c-0.3-0.4-0.7-0.7-1-1
		c-1.8-1.5-3-1.6-3.7-1.5c-4.4,0.7,0.3,14.5-9.1,20.8c-2.6,1.6-7.8,1.8-7.3-4.4C32.6,16.8,28.1,19.4,23.8,24.8z"/>
	<path class="st1" d="M49.5,42.4c-2.3-0.6-4.1,5.2-7.3,4.3s-1.3-2.6-4-3.3c-2.8-0.7-5.7,3.6-7.4,10.4s1.7,12.7,9.5,12.8
		c5.6,0.3,9.7-4,10.8-9.3C52.1,52,51.8,43,49.5,42.4z"/>
</g>
</svg>
