<?xml version="1.0" encoding="utf-8"?>
<!-- Generator: Adobe Illustrator 22.0.1, SVG Export Plug-In . SVG Version: 6.00 Build 0)  -->
<svg version="1.1" xmlns="http://www.w3.org/2000/svg" xmlns:xlink="http://www.w3.org/1999/xlink" x="0px" y="0px"
	 viewBox="0 0 170.1 170.1" style="enable-background:new 0 0 170.1 170.1;" xml:space="preserve">
<style type="text/css">
	.st0{fill:url(#SVGID_1_);}
	.st1{fill:url(#SVGID_2_);}
	.st2{fill:url(#SVGID_3_);}
	.st3{fill:url(#SVGID_4_);}
	.st4{fill:#FFFFFF;}
</style>
<g id="Ebene_3">
	<g>
		<linearGradient id="SVGID_1_" gradientUnits="userSpaceOnUse" x1="48.8496" y1="127.3169" x2="78.4829" y2="127.3169">
			<stop  offset="0.1931" style="stop-color:#AF8A82"/>
			<stop  offset="0.802" style="stop-color:#8E665E"/>
		</linearGradient>
		<path class="st0" d="M62.2,105.4l-13.3,42.8c-0.3,0.8,0.8,1.4,1.3,0.7l28.3-34.7"/>
		<linearGradient id="SVGID_2_" gradientUnits="userSpaceOnUse" x1="64.9665" y1="96.314" x2="78.2403" y2="119.3049">
			<stop  offset="0.1931" style="stop-color:#FFB125"/>
			<stop  offset="0.7871" style="stop-color:#DB8E02"/>
		</linearGradient>
		<path class="st1" d="M80.2,116.3l-20.5-11.1c-1.6-0.9-2.2-2.9-1.4-4.6l0,0c0.9-1.6,2.9-2.2,4.6-1.4l20.5,11.1
			c1.6,0.9,2.2,2.9,1.4,4.6v0C83.9,116.6,81.9,117.2,80.2,116.3z"/>
		<linearGradient id="SVGID_3_" gradientUnits="userSpaceOnUse" x1="59.6164" y1="93.9301" x2="102.7366" y2="93.9301">
			<stop  offset="0.1931" style="stop-color:#BBBBBB"/>
			<stop  offset="0.7871" style="stop-color:#909090"/>
		</linearGradient>
		<path class="st2" d="M102.1,100c0.9,0.5,0.8,1.7,0,2.1l-12.4,6.2c-3.9,1.9-7.8,2.1-11,0.4l-11.8-6.4c-3.1-1.7-5.2-5.1-5.7-9.4
			l-1.6-13.8c-0.1-1,0.9-1.7,1.8-1.2L102.1,100z"/>
	</g>
</g>
<g id="Ebene_1">
	<g>
		<linearGradient id="SVGID_4_" gradientUnits="userSpaceOnUse" x1="117.5295" y1="36.263" x2="73.1547" y2="80.6379">
			<stop  offset="0.2574" style="stop-color:#FF3A3A"/>
			<stop  offset="0.7525" style="stop-color:#FF703A"/>
		</linearGradient>
		<path class="st3" d="M75,37.6c-2.9,3.6-9,10.8-10.7,22.7c-2,17.8,20,32.5,38.1,28.4c22.4-5.1,21.5-44.2,18.3-45.1
			c-2-0.6-4,4.9-6.9,3.6c-2.2-1.2-2.7-5.3-2.7-8.2c0-1.4-0.1-2.3-0.4-3.6c-1.1-4.8-3.5-9.2-6.9-12.8c-0.3-0.4-0.7-0.7-1-1
			c-1.8-1.5-3-1.6-3.7-1.5c-4.4,0.7,0.3,14.5-9.1,20.8c-2.6,1.6-7.8,1.8-7.3-4.4C83.7,29.5,79.2,32.2,75,37.6z"/>
		<path class="st4" d="M100.6,55.2c-2.3-0.6-4.1,5.2-7.3,4.3c-3.2-0.9-1.3-2.6-4-3.3c-2.8-0.7-5.7,3.6-7.4,10.4
			c-1.7,6.8,1.7,12.7,9.5,12.8c5.6,0.3,9.7-4,10.8-9.3S102.9,55.8,100.6,55.2z"/>
	</g>
</g>
</svg>
