<?xml version="1.0" encoding="utf-8"?>
<!-- Generator: Adobe Illustrator 22.0.1, SVG Export Plug-In . SVG Version: 6.00 Build 0)  -->
<svg version="1.1" id="Ebene_1" xmlns="http://www.w3.org/2000/svg" xmlns:xlink="http://www.w3.org/1999/xlink" x="0px" y="0px"
	 viewBox="0 0 170.1 170.1" style="enable-background:new 0 0 170.1 170.1;" xml:space="preserve">
<style type="text/css">
	.st0{fill:url(#SVGID_1_);}
	.st1{fill:#FFCA3A;}
</style>
<g>
	<linearGradient id="SVGID_1_" gradientUnits="userSpaceOnUse" x1="-81.2705" y1="261.1923" x2="238.4112" y2="-58.4894">
		<stop  offset="0.4248" style="stop-color:#FF3A3A"/>
		<stop  offset="0.7087" style="stop-color:#6F3FAF"/>
	</linearGradient>
	<path class="st0" d="M121,94.9c0,19.8-16.1,35.9-35.9,35.9s-35.9-16.1-35.9-35.9C49.1,75.1,65.2,59,85,59S121,75.1,121,94.9z
		 M169.8,52.3v85.2c0,6.1-4.9,11-11,11H11.3c-6.1,0-11-4.9-11-11V52.3c0-6.1,4.9-11,11-11h43l19.7-19.7h22.6l19.7,19.7h42.7
		C164.9,41.3,169.8,46.2,169.8,52.3z M129,94.9c0-24.3-19.7-44-44-44s-44,19.7-44,44c0,24.3,19.7,44,44,44S129,119.1,129,94.9z
		 M39.2,35.4c0-1.6-1.3-2.9-2.9-2.9H23.2c-1.6,0-2.9,1.3-2.9,2.9c0,1.6,1.3,2.9,2.9,2.9h13.1C37.9,38.4,39.2,37.1,39.2,35.4z"/>
	<circle class="st1" cx="128.3" cy="53.3" r="3.7"/>
</g>
</svg>
