<?xml version="1.0" encoding="utf-8"?>
<!-- Generator: Adobe Illustrator 22.0.1, SVG Export Plug-In . SVG Version: 6.00 Build 0)  -->
<svg version="1.1" id="Ebene_1" xmlns="http://www.w3.org/2000/svg" xmlns:xlink="http://www.w3.org/1999/xlink" x="0px" y="0px"
	 viewBox="0 0 170.1 170.1" style="enable-background:new 0 0 170.1 170.1;" xml:space="preserve">
<style type="text/css">
	.st0{fill:url(#SVGID_1_);}
</style>
<linearGradient id="SVGID_1_" gradientUnits="userSpaceOnUse" x1="52.6405" y1="103.9714" x2="118.3595" y2="66.0285">
	<stop  offset="0.203" style="stop-color:#FF3A3A"/>
	<stop  offset="0.8614" style="stop-color:#8E3E96"/>
</linearGradient>
<path class="st0" d="M96.8,85l16.3-16.3c3.1-3.1,3.1-8.2,0-11.3v0c-3.1-3.1-8.2-3.1-11.3,0L85.5,73.7L69.2,57.4
	c-3.1-3.1-8.2-3.1-11.3,0v0c-3.1,3.1-3.1,8.2,0,11.3L74.2,85l-16.3,16.3c-3.1,3.1-3.1,8.2,0,11.3s8.2,3.1,11.3,0l16.3-16.3
	l16.3,16.3c3.1,3.1,8.2,3.1,11.3,0s3.1-8.2,0-11.3L96.8,85z"/>
</svg>
