<?xml version="1.0" encoding="utf-8"?>
<!-- Generator: Adobe Illustrator 22.0.1, SVG Export Plug-In . SVG Version: 6.00 Build 0)  -->
<svg version="1.1" id="Ebene_1" xmlns="http://www.w3.org/2000/svg" xmlns:xlink="http://www.w3.org/1999/xlink" x="0px" y="0px"
	 viewBox="0 0 170.1 170.1" style="enable-background:new 0 0 170.1 170.1;" xml:space="preserve">
<style type="text/css">
	.st0{fill:url(#SVGID_1_);}
	.st1{fill:url(#SVGID_2_);}
	.st2{fill:#FFFFFF;}
</style>
<g>
	<linearGradient id="SVGID_1_" gradientUnits="userSpaceOnUse" x1="52.7121" y1="121.1743" x2="134.6978" y2="39.1886">
		<stop  offset="0" style="stop-color:#6F3FAF"/>
		<stop  offset="0.3317" style="stop-color:#92A1FF"/>
	</linearGradient>
	<path class="st0" d="M93.7,22.2c-32,0-58,26-58,58c0,32,26,58,58,58c32,0,58-26,58-58C151.7,48.2,125.7,22.2,93.7,22.2z
		 M144.7,77.1h-20.9c-0.4,0-0.8-0.3-0.8-0.8c-0.6-9.4-3.5-19.3-6.7-27.9c-0.2-0.5,0.1-1,0.6-1.1c6.2-1.2,10.1-2.8,12.5-4
		c0.3-0.2,0.7-0.1,1,0.2c8.6,8.5,14.2,20,15.1,32.8C145.6,76.7,145.2,77.1,144.7,77.1z M100.4,131.7c-0.9,0.1-1.9,0.2-2.8,0.3
		c-0.5,0-0.9-0.4-0.9-0.8v-13.3c0-0.5,0.4-0.9,0.9-0.8c3.3,0.1,6.2,0.3,8.9,0.5c0.6,0.1,0.9,0.7,0.7,1.2c-2.4,5.5-4.7,10-6.1,12.6
		C100.9,131.5,100.7,131.7,100.4,131.7z M114.5,118.7c3.9,0.7,6.9,1.6,9.1,2.4c0.7,0.2,0.8,1.1,0.2,1.5c-4,2.9-8.5,5.2-13.3,6.8
		c-0.7,0.3-1.4-0.5-1.1-1.2c1.3-2.6,2.7-5.6,4.1-9C113.6,118.8,114.1,118.6,114.5,118.7z M81.6,117.5c2.5-0.2,5.2-0.4,8.2-0.5
		c0.5,0,0.9,0.4,0.9,0.8v13.3c0,0.5-0.4,0.9-0.9,0.8c-0.7-0.1-1.3-0.1-2-0.2c-0.3,0-0.5-0.2-0.6-0.4c-1.3-2.4-3.7-7-6.2-12.7
		C80.7,118.2,81,117.6,81.6,117.5z M78,129.7c-5.2-1.7-10.1-4.1-14.4-7.2c-0.5-0.4-0.4-1.2,0.2-1.4c2.3-0.9,5.5-1.8,9.9-2.6
		c0.4-0.1,0.7,0.1,0.9,0.5c1.6,3.7,3.1,6.9,4.4,9.6C79.2,129.3,78.6,129.9,78,129.7z M87.8,28.5c0.6-0.1,1.3-0.1,1.9-0.2
		c0.5,0,1,0.4,1,0.9v13.1c0,0.5-0.4,0.9-0.9,0.9c-3-0.1-5.7-0.2-8.1-0.5c-0.6-0.1-1-0.7-0.7-1.3c2.5-5.6,4.9-10.1,6.2-12.5
		C87.2,28.7,87.5,28.6,87.8,28.5z M73.5,41.7c-4.2-0.7-7.3-1.6-9.5-2.5c-0.7-0.2-0.8-1.1-0.2-1.5c4.2-3,8.9-5.4,13.9-7
		c0.7-0.2,1.4,0.5,1.1,1.2c-1.3,2.6-2.8,5.7-4.3,9.2C74.3,41.6,73.9,41.8,73.5,41.7z M106,42.8c-2.5,0.2-5.3,0.4-8.3,0.5
		c-0.5,0-1-0.4-1-1V29.3c0-0.6,0.5-1,1-1c0.8,0.1,1.5,0.1,2.2,0.2c0.3,0,0.6,0.2,0.7,0.5c1.3,2.3,3.6,6.7,6.1,12.3
		C107.1,42,106.7,42.7,106,42.8z M110.3,30.9c4.8,1.6,9.3,3.9,13.3,6.7c0.6,0.4,0.5,1.4-0.2,1.6c-2.2,0.8-5.1,1.6-9.1,2.4
		c-0.4,0.1-0.9-0.2-1-0.6c-1.5-3.4-2.9-6.4-4.2-8.9C108.8,31.5,109.5,30.6,110.3,30.9z M90.7,50.1v26.2c0,0.5-0.4,0.9-0.9,0.9h-18
		c-0.5,0-0.9-0.4-0.9-0.9c0.6-9.1,3.5-18.8,6.8-27.2c0.1-0.4,0.5-0.6,0.9-0.5c3.3,0.4,7,0.6,11.2,0.7C90.3,49.2,90.7,49.6,90.7,50.1
		z M90.7,84v26.2c0,0.5-0.4,0.8-0.9,0.9c-4.1,0.1-7.8,0.3-11.1,0.7c-0.4,0-0.8-0.2-0.9-0.5c-3.2-8.4-6.1-18.1-6.8-27.1
		c0-0.5,0.4-0.9,0.9-0.9h17.9C90.3,83.1,90.7,83.5,90.7,84z M96.7,110.2V84c0-0.5,0.4-0.9,0.9-0.9h18.5c0.5,0,0.9,0.4,0.9,0.9
		c-0.7,9-3.5,18.8-6.8,27.2c-0.1,0.4-0.5,0.6-0.9,0.5c-3.4-0.4-7.3-0.7-11.8-0.8C97,111,96.7,110.7,96.7,110.2z M96.7,76.3V50.1
		c0-0.5,0.4-0.8,0.8-0.9c4.4-0.1,8.2-0.4,11.6-0.8c0.4,0,0.8,0.2,0.9,0.5c3.4,8.6,6.4,18.7,7,28.1H97.5
		C97.1,77.1,96.7,76.8,96.7,76.3z M58.1,43.3c2.4,1.2,6.4,2.8,12.7,4.1c0.6,0.1,0.9,0.7,0.7,1.3c-3.2,8.5-5.9,18.3-6.5,27.6
		c0,0.5-0.4,0.9-0.9,0.9H42.8c-0.6,0-1-0.5-1-1c1-12.7,6.6-24.1,15.1-32.7C57.2,43.2,57.7,43.1,58.1,43.3z M42.8,83.1H64
		c0.5,0,0.9,0.4,0.9,0.9c0.7,9.3,3.4,19.1,6.6,27.7c0.2,0.6-0.1,1.1-0.7,1.3c-6.4,1.2-10.4,2.9-12.8,4.1c-0.4,0.2-0.8,0.1-1.1-0.2
		c-8.5-8.5-14.1-20-15-32.7C41.8,83.6,42.3,83.1,42.8,83.1z M129.4,117c-2.3-1.2-6.2-2.7-12.2-4c-0.6-0.1-0.9-0.7-0.7-1.3
		c3.2-8.6,5.9-18.4,6.5-27.7c0-0.5,0.5-0.9,1-0.9h20.6c0.6,0,1,0.5,1,1.1c-1,12.7-6.5,24.1-15,32.6
		C130.2,117.1,129.8,117.2,129.4,117z"/>
	<g>
		<linearGradient id="SVGID_2_" gradientUnits="userSpaceOnUse" x1="32.0038" y1="158.2849" x2="81.4277" y2="108.861">
			<stop  offset="0.1436" style="stop-color:#FFAD4C"/>
			<stop  offset="0.9287" style="stop-color:#ED9124"/>
		</linearGradient>
		<path class="st1" d="M23.9,147.9h65.6c4.4,0,7-4.9,4.6-8.5L61.3,89c-2.2-3.4-7.1-3.4-9.3,0l-32.8,50.4
			C16.9,143,19.5,147.9,23.9,147.9z"/>
		<g>
			<path class="st2" d="M56.7,135.1c-1.3,0-2.2-0.9-2.2-2.2c0-1.3,0.9-2.2,2.2-2.2c1.3,0,2.2,0.9,2.2,2.2
				C58.9,134.2,58.1,135.1,56.7,135.1z M55,125.7c0-1-0.1-15.9-0.1-16.7c0-0.6,0-0.9,0.3-1.2c0.3-0.4,0.9-0.6,1.6-0.6
				s1.3,0.2,1.6,0.6c0.2,0.3,0.3,0.6,0.3,1.2c0,0.8-0.1,15.7-0.1,16.7c0,0.9-0.4,1.6-1.7,1.6S55,126.6,55,125.7z"/>
		</g>
	</g>
</g>
</svg>
