<?xml version="1.0" encoding="utf-8"?>
<!-- Generator: Adobe Illustrator 22.0.1, SVG Export Plug-In . SVG Version: 6.00 Build 0)  -->
<svg version="1.1" id="Ebene_1" xmlns="http://www.w3.org/2000/svg" xmlns:xlink="http://www.w3.org/1999/xlink" x="0px" y="0px"
	 viewBox="0 0 170.1 170.1" style="enable-background:new 0 0 170.1 170.1;" xml:space="preserve">
<style type="text/css">
	.st0{display:none;fill:none;stroke:url(#SVGID_1_);stroke-width:9;stroke-miterlimit:10;}
	.st1{fill:url(#SVGID_2_);}
</style>
<linearGradient id="SVGID_1_" gradientUnits="userSpaceOnUse" x1="-117.0681" y1="75.9849" x2="-13.2017" y2="75.9849">
	<stop  offset="0" style="stop-color:#6F3FAF"/>
	<stop  offset="0.534" style="stop-color:#92A1FF"/>
</linearGradient>
<path class="st0" d="M-33.6-2.9h-68.7c-5.7,0-10.3,4.6-10.3,10.3v27.1c0,4,1.6,7.7,4.3,10.6l28.7,28.7c1.3,1.3,1.3,3.4,0,4.7
	l-28.6,28.7c-2.8,2.8-4.3,6.6-4.3,10.6v27.1c0,5.7,4.6,10.3,10.3,10.3H-28c5.7,0,10.3-4.6,10.3-10.3v-27.1c0-4-1.6-7.7-4.3-10.6
	l-28.7-28.7c-1.3-1.3-1.3-3.4,0-4.7L-22,45c2.8-2.8,4.3-6.6,4.3-10.6V7.3C-17.7,1.6-22.3-3-28-3L-33.6-2.9L-33.6-2.9z"/>
<linearGradient id="SVGID_2_" gradientUnits="userSpaceOnUse" x1="51.9419" y1="142.4286" x2="118.204" y2="27.6592">
	<stop  offset="0" style="stop-color:#6F3FAF"/>
	<stop  offset="0.534" style="stop-color:#92A1FF"/>
</linearGradient>
<path class="st1" d="M111.6,144.6h-53c-5.8,0-10.5-4.7-10.5-10.6v-19.3c0-3.7,1.4-7.2,4-9.8l19.8-19.9L52,65.2c-2.6-2.7-4-6.2-4-9.8
	V36.1c0-5.8,4.7-10.5,10.5-10.5h45.8v-0.1h7.3c5.8,0,10.6,4.7,10.6,10.5v19.4c0,3.7-1.4,7.2-4,9.8L98.2,85.1l19.9,19.9
	c2.6,2.7,4,6.2,4,9.8v19.3C122.1,139.9,117.4,144.6,111.6,144.6z M58.5,32c-2.3,0-4.1,1.9-4.1,4.1v19.3c0,2,0.8,3.8,2.2,5.3L77,81.1
	c2.2,2.2,2.2,5.7,0,7.9l-20.4,20.5c-1.4,1.4-2.2,3.3-2.2,5.3v19.3c0,2.3,1.9,4.1,4.1,4.1h53c2.3,0,4.1-1.9,4.1-4.1v-19.3
	c0-2-0.8-3.8-2.2-5.3L93.1,89c-2.2-2.2-2.2-5.7,0-7.9l20.5-20.5c1.4-1.4,2.2-3.3,2.2-5.3V36c0-2.3-1.9-4.1-4.1-4.1h-0.8l-3.2,0.1
	H58.5z M82.3,109.3c-5.2,5.7-12.1,8.2-18.5,9c-1.5,0.2-2.7,1.5-2.7,3.1v9.1c0,1.8,1.4,3.2,3.2,3.2H65l2.5-0.1h38.2
	c1.8,0,3.2-1.4,3.2-3.2v-15.1c0-1.5-0.6-3-1.7-4.1l-8.2-8.2c-2.5-2.5-6.4-2.8-9.2-0.6C87.2,104.4,84.7,106.7,82.3,109.3z"/>
</svg>
