<?xml version="1.0" encoding="utf-8"?>
<!-- Generator: Adobe Illustrator 22.0.1, SVG Export Plug-In . SVG Version: 6.00 Build 0)  -->
<svg version="1.1" id="Ebene_1" xmlns="http://www.w3.org/2000/svg" xmlns:xlink="http://www.w3.org/1999/xlink" x="0px" y="0px"
	 viewBox="0 0 170.1 170.1" style="enable-background:new 0 0 170.1 170.1;" xml:space="preserve">
<style type="text/css">
	.st0{fill:url(#SVGID_1_);}
	.st1{fill:#FFFFFF;}
	.st2{fill:url(#SVGID_2_);}
</style>
<g>
	
		<linearGradient id="SVGID_1_" gradientUnits="userSpaceOnUse" x1="129.7941" y1="123.9674" x2="58.1325" y2="52.3059" gradientTransform="matrix(0.988 -0.1541 -0.1541 -0.988 28.1987 174.2523)">
		<stop  offset="0.2574" style="stop-color:#FF3A3A"/>
		<stop  offset="0.7525" style="stop-color:#FF703A"/>
	</linearGradient>
	<path class="st0" d="M84.3,41.7c-2.8,5-8,13.8-8.8,30.7c-0.2,19.1,20.3,58.1,27.1,58.9s38.2-37,42.7-51.2
		c5.1-15.7,0.1-39.6-2.6-39.9c-2.6-0.3-3.9,6.8-8,5.8c-3-1-4.3-6.1-4.9-9.8c-0.4-2.1-0.6-3.4-1.8-5.8c-2.3-5.3-6-9.7-10.4-13.2
		c-0.5-0.4-1.1-0.8-1.6-1.1c-2.6-1.5-4.2-1.4-4.9-1.1c-5.4,1.6,3.3,18.1-7.3,27.8c-2.9,2.6-9.5,3.7-9.9-4.1
		C93.7,29.8,88.6,34.1,84.3,41.7z"/>
	<path class="st1" d="M119.3,52.1c-3.1-0.4-4.2,7.3-8.3,6.8s-2.1-3-5.7-3.4c-3.6-0.3-6.4,5.7-7.3,14.4c-0.9,8.8,4.6,15.5,14.3,14.2
		c7-0.7,11.4-6.8,11.7-13.7C124.4,63.5,122.4,52.5,119.3,52.1z"/>
</g>
<g>
	<linearGradient id="SVGID_2_" gradientUnits="userSpaceOnUse" x1="52.8032" y1="157.1798" x2="107.0229" y2="102.9601">
		<stop  offset="0.1436" style="stop-color:#FFAD4C"/>
		<stop  offset="0.9287" style="stop-color:#ED9124"/>
	</linearGradient>
	<path class="st2" d="M43.9,145.8h72c4.8,0,7.7-5.3,5.1-9.4L85,81.1c-2.4-3.7-7.8-3.7-10.2,0l-36,55.3
		C36.2,140.4,39.1,145.8,43.9,145.8z"/>
	<g>
		<path class="st1" d="M79.9,131.8c-1.5,0-2.4-1-2.4-2.4c0-1.4,1-2.4,2.4-2.4c1.5,0,2.4,1,2.4,2.4C82.4,130.8,81.4,131.8,79.9,131.8
			z M78,121.4c0-1.1-0.1-17.5-0.1-18.3c0-0.6,0-1,0.3-1.3c0.3-0.4,1-0.6,1.8-0.6s1.4,0.2,1.8,0.6c0.2,0.3,0.3,0.7,0.3,1.3
			c0,0.8-0.1,17.2-0.1,18.3c0,1-0.5,1.8-1.9,1.8C78.5,123.2,78.1,122.4,78,121.4z"/>
	</g>
</g>
</svg>
