<?xml version="1.0" encoding="utf-8"?>
<!-- Generator: Adobe Illustrator 22.0.1, SVG Export Plug-In . SVG Version: 6.00 Build 0)  -->
<svg version="1.1" id="Ebene_1" xmlns="http://www.w3.org/2000/svg" xmlns:xlink="http://www.w3.org/1999/xlink" x="0px" y="0px"
	 viewBox="0 0 170.1 170.1" style="enable-background:new 0 0 170.1 170.1;" xml:space="preserve">
<style type="text/css">
	.st0{display:none;}
	.st1{display:inline;}
	.st2{fill:url(#SVGID_1_);}
	.st3{fill:url(#SVGID_2_);}
	.st4{fill:url(#SVGID_3_);}
	.st5{fill:url(#SVGID_4_);}
	.st6{fill:#FFFFFF;}
	.st7{fill:url(#SVGID_5_);}
	.st8{fill:url(#SVGID_6_);}
	.st9{fill:url(#SVGID_7_);}
</style>
<g class="st0">
	<g class="st1">
		
			<linearGradient id="SVGID_1_" gradientUnits="userSpaceOnUse" x1="161.2748" y1="77.2128" x2="166.5877" y2="77.2128" gradientTransform="matrix(0.9474 -0.32 0.32 0.9474 -36.2543 15.9602)">
			<stop  offset="0.1931" style="stop-color:#AF8A82"/>
			<stop  offset="0.802" style="stop-color:#8E665E"/>
		</linearGradient>
		<path class="st2" d="M142.3,33l0.2,8c0,0.2,0.2,0.2,0.3,0l2.8-7.5"/>
		
			<linearGradient id="SVGID_2_" gradientUnits="userSpaceOnUse" x1="164.1644" y1="71.6543" x2="166.5442" y2="75.7763" gradientTransform="matrix(0.9474 -0.32 0.32 0.9474 -36.2543 15.9602)">
			<stop  offset="0.1931" style="stop-color:#FFB125"/>
			<stop  offset="0.7871" style="stop-color:#DB8E02"/>
		</linearGradient>
		<path class="st3" d="M145.9,33.8l-4.1-0.7c-0.3-0.1-0.6-0.4-0.5-0.7l0,0c0.1-0.3,0.4-0.6,0.7-0.5l4.1,0.7c0.3,0.1,0.6,0.4,0.5,0.7
			l0,0C146.6,33.7,146.3,33.9,145.9,33.8z"/>
		
			<linearGradient id="SVGID_3_" gradientUnits="userSpaceOnUse" x1="163.2052" y1="71.2269" x2="170.9361" y2="71.2269" gradientTransform="matrix(0.9474 -0.32 0.32 0.9474 -36.2543 15.9602)">
			<stop  offset="0.1931" style="stop-color:#BBBBBB"/>
			<stop  offset="0.7871" style="stop-color:#909090"/>
		</linearGradient>
		<path class="st4" d="M148.7,29.8c0.2,0,0.2,0.2,0.1,0.4l-1.8,1.8c-0.5,0.6-1.2,0.8-1.8,0.7l-2.4-0.4c-0.6-0.1-1.2-0.6-1.5-1.3
			l-1.1-2.3c-0.1-0.2,0.1-0.3,0.2-0.3L148.7,29.8z"/>
	</g>
	<g class="st1">
		
			<linearGradient id="SVGID_4_" gradientUnits="userSpaceOnUse" x1="173.5883" y1="60.8879" x2="165.6324" y2="68.8438" gradientTransform="matrix(0.9474 -0.32 0.32 0.9474 -36.2543 15.9602)">
			<stop  offset="0.2574" style="stop-color:#FF3A3A"/>
			<stop  offset="0.7525" style="stop-color:#FF703A"/>
		</linearGradient>
		<path class="st5" d="M140.5,20.8c-0.3,0.8-0.9,2.4-0.5,4.5c0.7,3.1,5.3,4.4,8.1,2.6c3.5-2.2,1.1-8.7,0.5-8.7c-0.4,0-0.4,1.1-1,1
			c-0.5-0.1-0.8-0.7-0.9-1.2c-0.1-0.2-0.1-0.4-0.3-0.6c-0.5-0.8-1.1-1.4-1.9-1.8c-0.1,0-0.2-0.1-0.2-0.1c-0.4-0.1-0.6-0.1-0.7,0
			c-0.7,0.4,0.9,2.4-0.3,4.1c-0.3,0.4-1.2,0.8-1.5-0.3C141.6,18.9,141,19.6,140.5,20.8z"/>
		<path class="st6" d="M145.9,22.3c-0.4,0-0.4,1.1-1,1.1c-0.6,0-0.4-0.4-0.9-0.3c-0.5,0-0.8,0.9-0.7,2.2c0.1,1.3,1,2.1,2.3,1.6
			c1-0.3,1.4-1.2,1.3-2.2C146.9,23.8,146.3,22.3,145.9,22.3z"/>
	</g>
</g>
<linearGradient id="SVGID_5_" gradientUnits="userSpaceOnUse" x1="11.5343" y1="86.3554" x2="161.7814" y2="86.3554">
	<stop  offset="0" style="stop-color:#662D91"/>
	<stop  offset="1" style="stop-color:#FF0000"/>
</linearGradient>
<path class="st7" d="M158.4,43.2C131,46.9,63.1,38.8,33.3,19.8c-2.1-1.3-4.8-0.3-5.5,2.1c-2.2,8.1-6.6,24-8.6,31.2
	c-0.6,2.2,0.3,4.6,2.2,5.9l3.3,2.1c1.5,1,1.2,3.2-0.4,3.8l-4.3,1.7c-1.9,0.7-3.2,2.4-3.4,4.4c-1,9.5-3.9,37.2-5.2,48.6
	c-0.3,2.7,1.7,5,4.4,5.2c27.4,1.9,64.3,11.8,75,14.8c1.9,0.5,3.9,0,5.3-1.5l3.9-4.1c0.8-0.9,2.3-0.5,2.6,0.6l1.8,5.9
	c0.4,1.4,1.4,2.5,2.6,3.2c6.1,3.2,24.8,12.2,38.4,9.2c2.7-0.6,4.8-2.9,5.1-5.6l3.7-34.4c0.2-2-0.7-3.9-2.4-5l-4.5-3
	c-1.6-1.1-1.2-3.6,0.8-4.1l3.8-0.8c2.3-0.5,4-2.4,4.2-4.7c1.1-10.3,4.2-38.6,5.3-48.9C162,44.5,160.3,42.9,158.4,43.2z M61.6,104.8
	c-0.3,1.9-2,3.2-3.8,3.2c-0.2,0-0.5,0-0.7-0.1c-4.1-0.8-6.6-1.6-6.8-1.6c-2-0.7-3.1-2.8-2.5-4.9c0.7-2,2.8-3.1,4.9-2.5
	c0,0,2.2,0.7,5.8,1.4C60.6,100.7,61.9,102.7,61.6,104.8z M62.5,58.1c-1.7,12.1-11.7,4.7-11.7,1.7S64,47.5,62.5,58.1z M83.3,108.3
	c-3.8,0.7-7.8,1-11.9,1c-0.4,0-0.8,0-1.3,0c-2.1,0-3.8-1.8-3.8-3.9c0-2.1,1.8-3.8,3.9-3.8c4,0.1,8-0.2,11.7-0.9
	c2.1-0.4,4.1,1,4.5,3.1C86.8,105.9,85.4,107.9,83.3,108.3z M102.5,89.5c0,4.1-0.6,10-5.9,14c-0.7,0.5-1.5,0.8-2.3,0.8
	c-1.2,0-2.3-0.5-3.1-1.5c-1.3-1.7-1-4.1,0.7-5.4c2-1.5,2.8-3.9,2.8-7.9v-0.2c0-2.1,1.7-3.9,3.9-3.9s3.9,1.7,3.9,3.9V89.5z
	 M105.8,71.9c-2.9,0.5-3.8,1.7-3.9,5.1c-0.1,2.1-1.8,3.7-3.9,3.7c-0.1,0-0.1,0-0.2,0c-2.1-0.1-3.8-1.9-3.7-4
	c0.3-7,3.7-11.2,10.2-12.4c2.1-0.4,4.1,1,4.5,3.1C109.3,69.5,107.9,71.5,105.8,71.9z M117.5,70.8c-2,0-3.7-1.5-3.8-3.5
	c-0.2-2.1,1.4-4,3.5-4.2c3.2-0.3,4.7-0.5,5.3-0.5c0.4-0.1,0.8-0.2,1.2-0.2c0,0,0,0,0,0c2.1,0,3.9,1.6,4,3.7c0.1,1.7-0.6,3.7-4.5,4.2
	c-0.9,0.1-2.5,0.3-5.3,0.5C117.7,70.8,117.6,70.8,117.5,70.8z M136.4,129.2c-2.7,1.6-7.7,3.1-11.5,3.1c-1.3,0-2.5-0.7-3.2-1.8
	c-1.3-2.1-1.5-4-0.7-6.3c0.4-1.1,1.3-2,2.4-2.4c3.2-1.1,8.8-1.1,11.7-0.4c1,0.2,2,0.8,2.5,1.8c0.4,0.6,0.6,1.3,0.7,2
	C138.6,126.8,137.8,128.4,136.4,129.2z M139.6,69.4l-6.8-4c-0.6-0.4-0.7-1.3-0.1-1.7l6.5-4.5c0.7-0.5,1.5,0,1.6,0.8l0.3,8.6
	C141.1,69.3,140.3,69.8,139.6,69.4z"/>
<g>
	
		<linearGradient id="SVGID_6_" gradientUnits="userSpaceOnUse" x1="54.7434" y1="32.8258" x2="25.1148" y2="15.7197" gradientTransform="matrix(0.9998 2.132699e-02 -2.132699e-02 0.9998 1.9872 -0.5444)">
		<stop  offset="0" style="stop-color:#FFCA3A"/>
		<stop  offset="3.433079e-02" style="stop-color:#FFBE3A"/>
		<stop  offset="0.1505" style="stop-color:#FF9C3A"/>
		<stop  offset="0.2609" style="stop-color:#FF843A"/>
		<stop  offset="0.3621" style="stop-color:#FF753A"/>
		<stop  offset="0.4455" style="stop-color:#FF703A"/>
		<stop  offset="0.5741" style="stop-color:#FF733A"/>
		<stop  offset="0.6856" style="stop-color:#FF7E3A"/>
		<stop  offset="0.7909" style="stop-color:#FF903A"/>
		<stop  offset="0.8918" style="stop-color:#FFA93A"/>
		<stop  offset="0.9896" style="stop-color:#FFC93A"/>
		<stop  offset="0.9926" style="stop-color:#FFCA3A"/>
	</linearGradient>
	<path class="st8" d="M21,27c0-0.5,4.5-11.5,7.6-11.5c3.2,0.1,6.7,6.4,6.7,6.4l15.1-2.6l3.2-0.7c1.7-0.4,3.4,0.4,4.2,1.8l3,5.1
		L21,27z"/>
	
		<linearGradient id="SVGID_7_" gradientUnits="userSpaceOnUse" x1="72.0093" y1="5.0092" x2="12.8905" y2="64.128" gradientTransform="matrix(0.9688 -0.2477 0.2477 0.9688 -13.8888 24.8798)">
		<stop  offset="0.2574" style="stop-color:#FF3A3A"/>
		<stop  offset="0.7525" style="stop-color:#FF703A"/>
	</linearGradient>
	<path class="st9" d="M14.3,24.2c-2,4.4-5.6,11.9-4.8,26c1.4,15.7,21.3,46.1,26.9,46.2s28.5-33.4,31.1-45.5c3-13.3-3-32.5-5.3-32.5
		c-2.1-0.1-2.8,6-6.1,5.4c-2.6-0.7-4.1-4.7-4.9-7.6c-0.5-1.7-0.8-2.8-1.9-4.6C47,7.5,43.7,4.1,39.7,1.6c-0.5-0.3-1-0.6-1.4-0.8
		c-2.2-1-3.5-0.8-4.1-0.5c-4.3,1.8,4,14.6-3.8,23.5c-2.2,2.3-7.4,3.8-8.5-2.5C21.1,13.8,17.3,17.7,14.3,24.2z"/>
	<path class="st6" d="M43.9,30c-2.5,0-2.8,6.3-6.3,6.2s-2-2.3-4.9-2.3c-3,0-4.8,5.1-4.8,12.5c0,7.3,5,12.4,12.9,10.5
		c5.7-1.2,8.8-6.5,8.5-12.2C49,39,46.5,30,43.9,30z"/>
</g>
</svg>
