<?xml version="1.0" encoding="utf-8"?>
<!-- Generator: Adobe Illustrator 22.0.1, SVG Export Plug-In . SVG Version: 6.00 Build 0)  -->
<svg version="1.1" id="Ebene_1" xmlns="http://www.w3.org/2000/svg" xmlns:xlink="http://www.w3.org/1999/xlink" x="0px" y="0px"
	 viewBox="0 0 170.1 170.1" style="enable-background:new 0 0 170.1 170.1;" xml:space="preserve">
<style type="text/css">
	.st0{fill:url(#SVGID_1_);}
</style>
<linearGradient id="SVGID_1_" gradientUnits="userSpaceOnUse" x1="10.3124" y1="159.7663" x2="159.7663" y2="10.3124">
	<stop  offset="6.796116e-02" style="stop-color:#FF3A3A"/>
	<stop  offset="0.8835" style="stop-color:#6F3FAF"/>
</linearGradient>
<path class="st0" d="M57.3,73.7H35.6c-6.3,0-11.4-5.1-11.4-11.4V40.6c0-6.3,5.1-11.4,11.4-11.4h21.7c6.3,0,11.4,5.1,11.4,11.4v21.7
	C68.7,68.6,63.6,73.7,57.3,73.7z M35.6,36.6c-2.2,0-4.1,1.8-4.1,4.1v21.7c0,2.2,1.8,4.1,4.1,4.1h21.7c2.2,0,4.1-1.8,4.1-4.1V40.6
	c0-2.2-1.8-4.1-4.1-4.1H35.6z M57.3,138.3H35.6c-6.3,0-11.4-5.1-11.4-11.4v-21.7c0-6.3,5.1-11.4,11.4-11.4h21.7
	c6.3,0,11.4,5.1,11.4,11.4v21.7C68.7,133.2,63.6,138.3,57.3,138.3z M35.6,101.1c-2.2,0-4.1,1.8-4.1,4.1v21.7c0,2.2,1.8,4.1,4.1,4.1
	h21.7c2.2,0,4.1-1.8,4.1-4.1v-21.7c0-2.2-1.8-4.1-4.1-4.1H35.6z M132.8,73.7h-21.7c-6.3,0-11.4-5.1-11.4-11.4V40.6
	c0-6.3,5.1-11.4,11.4-11.4h21.7c6.3,0,11.4,5.1,11.4,11.4v21.7C144.2,68.6,139.1,73.7,132.8,73.7z M111.1,36.6
	c-2.2,0-4.1,1.8-4.1,4.1v21.7c0,2.2,1.8,4.1,4.1,4.1h21.7c2.2,0,4.1-1.8,4.1-4.1V40.6c0-2.2-1.8-4.1-4.1-4.1H111.1z M87.8,70V33
	c0-1.9-1.6-3.4-3.7-3.4c-2,0-3.7,1.5-3.7,3.4v37c0,1.9,1.6,3.4,3.7,3.4C86.2,73.4,87.8,71.9,87.8,70z M142.3,111.8v-28
	c0-2-1.6-3.7-3.7-3.7h-33.5c-2,0-3.7,1.6-3.7,3.7v27.8c0,2,1.6,3.7,3.7,3.7s3.7-1.6,3.7-3.7V87.4H135v24.4c0,2,1.6,3.7,3.7,3.7
	S142.3,113.8,142.3,111.8z M144.8,127c0-2-1.6-3.7-3.7-3.7H88.4v-40c0-2-1.6-3.7-3.7-3.7H26.5c-2,0-3.7,1.6-3.7,3.7
	c0,2,1.6,3.7,3.7,3.7h54.6v40c0,2,1.6,3.7,3.7,3.7h56.4C143.2,130.7,144.8,129,144.8,127z M13,24c0-3.4,2.8-6.2,6.2-6.2h10.7
	c2.7,0,4.9-2.2,4.9-4.9v0c0-2.7-2.2-4.9-4.9-4.9H19.2c-8.8,0-16,7.2-16,16v10.7c0,2.7,2.2,4.9,4.9,4.9h0c2.7,0,4.9-2.2,4.9-4.9V24z
	 M150.8,17.8c3.4,0,6.2,2.8,6.2,6.2v10.7c0,2.7,2.2,4.9,4.9,4.9l0,0c2.7,0,4.9-2.2,4.9-4.9V24c0-8.8-7.2-16-16-16h-10.7
	c-2.7,0-4.9,2.2-4.9,4.9v0c0,2.7,2.2,4.9,4.9,4.9H150.8z M19.2,152.3c-3.4,0-6.2-2.8-6.2-6.2v-10.7c0-2.7-2.2-4.9-4.9-4.9h0
	c-2.7,0-4.9,2.2-4.9,4.9v10.7c0,8.8,7.2,16,16,16h10.7c2.7,0,4.9-2.2,4.9-4.9l0,0c0-2.7-2.2-4.9-4.9-4.9H19.2z M157.1,146.1
	c0,3.4-2.8,6.2-6.2,6.2h-10.7c-2.7,0-4.9,2.2-4.9,4.9l0,0c0,2.7,2.2,4.9,4.9,4.9h10.7c8.8,0,16-7.2,16-16v-10.7
	c0-2.7-2.2-4.9-4.9-4.9l0,0c-2.7,0-4.9,2.2-4.9,4.9V146.1z"/>
</svg>
