<?xml version="1.0" encoding="utf-8"?>
<!-- Generator: Adobe Illustrator 22.0.1, SVG Export Plug-In . SVG Version: 6.00 Build 0)  -->
<svg version="1.1" id="Ebene_1" xmlns="http://www.w3.org/2000/svg" xmlns:xlink="http://www.w3.org/1999/xlink" x="0px" y="0px"
	 viewBox="0 0 170.1 170.1" style="enable-background:new 0 0 170.1 170.1;" xml:space="preserve">
<style type="text/css">
	.st0{fill:url(#Background_2_);}
	.st1{fill:#202020;}
	.st2{fill:#0F538C;}
	.st3{fill:#054982;}
	.st4{fill:url(#SVGID_1_);stroke:#000000;stroke-width:0.25;stroke-miterlimit:10;}
	.st5{fill:url(#SVGID_2_);}
	.st6{fill:url(#SVGID_3_);}
	.st7{fill:url(#SVGID_4_);}
	.st8{fill:url(#SVGID_5_);}
	.st9{fill:url(#SVGID_6_);}
	.st10{fill:#1A6E57;}
	.st11{fill:#0D3B2E;}
	.st12{fill:url(#SVGID_7_);stroke:#000000;stroke-width:0.25;stroke-miterlimit:10;}
	.st13{fill:url(#SVGID_8_);}
	.st14{fill:url(#SVGID_9_);}
	.st15{fill:url(#SVGID_10_);}
	.st16{fill:url(#SVGID_11_);}
	.st17{fill:url(#SVGID_12_);}
	.st18{fill:#EBDAC4;}
	.st19{fill:url(#SVGID_13_);}
	.st20{fill:url(#SVGID_14_);}
</style>
<linearGradient id="Background_2_" gradientUnits="userSpaceOnUse" x1="46.2829" y1="19.7537" x2="123.7958" y2="154.0101" gradientTransform="matrix(1 0 0 -1 0 171.9213)">
	<stop  offset="0.4466" style="stop-color:#C06AFF"/>
	<stop  offset="1" style="stop-color:#A400D4"/>
</linearGradient>
<circle id="Background_1_" class="st0" cx="85" cy="85" r="77.5"/>
<g id="Phone_2">
	<polygon class="st1" points="123.5,108.6 89.3,107.8 100.4,38.2 134.5,39 	"/>
	<polygon class="st2" points="100.4,38.2 102.9,37.9 135.4,38.7 134.5,39 	"/>
	<polygon class="st3" points="135.4,38.7 134.5,39 123.5,108.6 124.3,108.6 	"/>
	<g>
		<linearGradient id="SVGID_1_" gradientUnits="userSpaceOnUse" x1="111.926" y1="107.2627" x2="111.926" y2="39.5298">
			<stop  offset="0" style="stop-color:#FF3A3A"/>
			<stop  offset="0.6456" style="stop-color:#EEEEEE"/>
		</linearGradient>
		<path class="st4" d="M126.6,40.4l-0.5,0.7c-0.4,0.5-0.9,0.7-1.5,0.7l-13.9-0.4c-0.9,0-1.6-0.6-1.8-1.5l0,0c0-0.1-0.1-0.2-0.2-0.2
			l-7.8-0.2l-10.6,66.9l32.9,0.8l10.6-66.9l-6.6-0.2C126.9,40.2,126.7,40.2,126.6,40.4z"/>
	</g>
	
		<linearGradient id="SVGID_2_" gradientUnits="userSpaceOnUse" x1="111.9322" y1="77.3864" x2="111.9322" y2="62.258" gradientTransform="matrix(1 9.780300e-03 -1.176498e-02 1.2028 0.8206 -15.1623)">
		<stop  offset="0" style="stop-color:#FFFFFF"/>
		<stop  offset="0.6456" style="stop-color:#EEEEEE"/>
	</linearGradient>
	<path class="st5" d="M107.6,60.8l10.9,0.2c2.8,0.1,4.9,2.7,4.2,5.5l-2.2,9.2c-0.5,2-2.3,3.4-4.4,3.4l-10.8-0.2
		c-2.8-0.1-4.9-2.7-4.2-5.4l2.2-9.2C103.7,62.2,105.6,60.7,107.6,60.8z"/>
	
		<linearGradient id="SVGID_3_" gradientUnits="userSpaceOnUse" x1="105.918" y1="96.4609" x2="117.9916" y2="108.5345" gradientTransform="matrix(1.0015 9.697576e-06 0.2373 -0.9985 -24.4976 171.7647)">
		<stop  offset="6.796116e-02" style="stop-color:#FF3A3A"/>
		<stop  offset="0.8835" style="stop-color:#6F3FAF"/>
	</linearGradient>
	<path class="st6" d="M109.9,68.5l-1.8,0c-0.5,0-0.8-0.4-0.7-0.9l0.4-1.8c0.1-0.5,0.6-0.9,1.1-0.9l1.8,0c0.5,0,0.8,0.4,0.7,0.9
		l-0.4,1.8C110.9,68.1,110.4,68.5,109.9,68.5z M108.9,65.5c-0.2,0-0.4,0.1-0.4,0.3l-0.4,1.8c0,0.2,0.1,0.3,0.3,0.3l1.8,0
		c0.2,0,0.4-0.1,0.4-0.3l0.4-1.8c0-0.2-0.1-0.3-0.3-0.3L108.9,65.5L108.9,65.5z M108.7,73.7l-1.8,0c-0.5,0-0.8-0.4-0.7-0.9l0.4-1.8
		c0.1-0.5,0.6-0.9,1.1-0.9l1.8,0c0.5,0,0.8,0.4,0.7,0.9l-0.4,1.8C109.7,73.3,109.2,73.7,108.7,73.7z M107.6,70.7
		c-0.2,0-0.4,0.1-0.4,0.3l-0.4,1.8c0,0.2,0.1,0.3,0.3,0.3l1.8,0c0.2,0,0.4-0.1,0.4-0.3l0.4-1.8c0-0.2-0.1-0.3-0.3-0.3L107.6,70.7z
		 M116,68.5l-1.8,0c-0.5,0-0.8-0.4-0.7-0.9l0.4-1.8c0.1-0.5,0.6-0.9,1.1-0.9l1.8,0c0.5,0,0.8,0.4,0.7,0.9l-0.4,1.8
		C117.1,68.1,116.5,68.5,116,68.5z M115,65.5c-0.2,0-0.4,0.1-0.4,0.3l-0.4,1.8c0,0.2,0.1,0.3,0.3,0.3l1.8,0c0.2,0,0.4-0.1,0.4-0.3
		l0.4-1.8c0-0.2-0.1-0.3-0.3-0.3L115,65.5L115,65.5z M112.5,68.2l0.7-3c0-0.2-0.1-0.3-0.2-0.3c-0.2,0-0.3,0.1-0.4,0.3l-0.7,3
		c0,0.2,0.1,0.3,0.2,0.3S112.4,68.4,112.5,68.2z M116.1,71.6l0.5-2.3c0-0.2-0.1-0.3-0.2-0.3l-2.7,0c-0.2,0-0.3,0.1-0.4,0.3l-0.5,2.2
		c0,0.2,0.1,0.3,0.2,0.3c0.2,0,0.3-0.1,0.4-0.3l0.5-2l2.1,0l-0.5,2c0,0.2,0.1,0.3,0.2,0.3C115.9,71.9,116,71.7,116.1,71.6z
		 M116,72.8c0-0.2-0.1-0.3-0.2-0.3l-4.3,0l0.8-3.2c0-0.2-0.1-0.3-0.2-0.3l-4.7,0c-0.2,0-0.3,0.1-0.4,0.3c0,0.2,0.1,0.3,0.2,0.3
		l4.4,0l-0.8,3.2c0,0.2,0.1,0.3,0.2,0.3l4.6,0C115.8,73.1,115.9,73,116,72.8z M107.3,64.5c0.1-0.3,0.3-0.5,0.6-0.5l0.9,0
		c0.2,0,0.4-0.2,0.5-0.4l0,0c0.1-0.2-0.1-0.4-0.3-0.4l-0.9,0c-0.7,0-1.4,0.6-1.6,1.3l-0.2,0.9c-0.1,0.2,0.1,0.4,0.3,0.4l0,0
		c0.2,0,0.4-0.2,0.5-0.4L107.3,64.5z M118.6,64c0.3,0,0.4,0.2,0.4,0.5l-0.2,0.9c-0.1,0.2,0.1,0.4,0.3,0.4l0,0c0.2,0,0.4-0.2,0.5-0.4
		l0.2-0.9c0.2-0.7-0.3-1.3-1-1.3l-0.9,0c-0.2,0-0.4,0.2-0.5,0.4l0,0c-0.1,0.2,0.1,0.4,0.3,0.4L118.6,64z M105.3,74.8
		c-0.3,0-0.4-0.2-0.4-0.5l0.2-0.9c0.1-0.2-0.1-0.4-0.3-0.4l0,0c-0.2,0-0.4,0.2-0.5,0.4l-0.2,0.9c-0.2,0.7,0.3,1.3,1,1.3l0.9,0
		c0.2,0,0.4-0.2,0.5-0.4l0,0c0.1-0.2-0.1-0.4-0.3-0.4L105.3,74.8L105.3,74.8z M116.6,74.3c-0.1,0.3-0.3,0.5-0.6,0.5l-0.9,0
		c-0.2,0-0.4,0.2-0.5,0.4l0,0c-0.1,0.2,0.1,0.4,0.3,0.4l0.9,0c0.7,0,1.4-0.6,1.6-1.3l0.2-0.9c0.1-0.2-0.1-0.4-0.3-0.4l0,0
		c-0.2,0-0.4,0.2-0.5,0.4L116.6,74.3L116.6,74.3z"/>
</g>
<g>
	
		<linearGradient id="SVGID_4_" gradientUnits="userSpaceOnUse" x1="33.8656" y1="26.9395" x2="111.3785" y2="161.1958" gradientTransform="matrix(1 0 0 -1 0 171.9213)">
		<stop  offset="0.4466" style="stop-color:#C06AFF"/>
		<stop  offset="1" style="stop-color:#A400D4"/>
	</linearGradient>
	<path class="st7" d="M49.7,134.2l2.9-0.8l17-7.6L46.3,94.1l-11.5,21.4c-0.8,1.5-2.2,2.7-3.9,3.4l-11.2,7.8
		c5,7.7,11.2,14.5,18.5,20.1l4.9-7.9C44.5,136.6,46.9,135,49.7,134.2z"/>
	<linearGradient id="SVGID_5_" gradientUnits="userSpaceOnUse" x1="44.6583" y1="156.0817" x2="44.6583" y2="94.053">
		<stop  offset="0" style="stop-color:#EBCDA7"/>
		<stop  offset="1" style="stop-color:#E1C39D"/>
	</linearGradient>
	<path class="st8" d="M49.7,134.2l2.9-0.8l17-7.6L46.3,94.1l-11.5,21.4c-0.8,1.5-2.2,2.7-3.9,3.4l-11.2,7.8
		c5,7.7,11.2,14.5,18.5,20.1l4.9-7.9C44.5,136.6,46.9,135,49.7,134.2z"/>
</g>
<linearGradient id="SVGID_6_" gradientUnits="userSpaceOnUse" x1="90.3333" y1="88.9625" x2="90.3333" y2="79.7408" gradientTransform="matrix(0.9728 -0.2318 0.2318 0.9728 -16.3852 23.8579)">
	<stop  offset="0" style="stop-color:#EBCDA7"/>
	<stop  offset="1" style="stop-color:#E1C39D"/>
</linearGradient>
<path class="st9" d="M87.2,86.8l3.2-5.8c0.7-1.2,2.2-1.5,3.3-0.6c0.2,0.2,0.4,0.3,0.6,0.6c2,1.9,0.7,4-1.4,6.2
	c-0.7,0.8-1.6,1.6-2.4,2.3c-1.2,1.1-3.2,0.5-3.6-1.1l0,0C86.9,87.9,86.9,87.3,87.2,86.8z"/>
<g id="Ph1_1_">
	<g id="Ph1">
		<polygon class="st1" points="83.5,134 39.2,133 53.5,43 97.8,44 		"/>
		<polygon class="st10" points="53.5,43 56.9,42.6 98.9,43.6 97.8,44 		"/>
		<polygon class="st11" points="98.9,43.6 97.8,44 83.5,134 84.5,134 		"/>
		<linearGradient id="SVGID_7_" gradientUnits="userSpaceOnUse" x1="68.5" y1="132.3151" x2="68.5" y2="44.6849">
			<stop  offset="0" style="stop-color:#A400D4"/>
			<stop  offset="0.6456" style="stop-color:#EEEEEE"/>
		</linearGradient>
		<polygon class="st12" points="82.9,132.3 40.3,131.3 54.1,44.7 96.7,45.7 		"/>
	</g>
	<g>
		
			<linearGradient id="SVGID_8_" gradientUnits="userSpaceOnUse" x1="69.4219" y1="96.6021" x2="69.4219" y2="70.3726" gradientTransform="matrix(1 9.780095e-03 -1.619833e-02 1.6561 1.1875 -52.6665)">
			<stop  offset="0" style="stop-color:#FFFFFF"/>
			<stop  offset="0.6456" style="stop-color:#EEEEEE"/>
		</linearGradient>
		<path class="st13" d="M61.9,64.5l18.9,0.5c4.9,0.1,9.1,3.4,7.9,9.9L84.1,100c-0.9,4.8-4,8.2-7.6,8.1l-18.7-0.5
			c-4.9-0.1-9-4-7.9-10.5l4.4-24.4C55.1,67.8,58.3,64.4,61.9,64.5z"/>
		<linearGradient id="SVGID_9_" gradientUnits="userSpaceOnUse" x1="69.5523" y1="104.0699" x2="69.5523" y2="68.4795">
			<stop  offset="0" style="stop-color:#FD5454"/>
			<stop  offset="1" style="stop-color:#F0D5D5"/>
		</linearGradient>
		<path class="st14" d="M63.5,68.5L79,68.9c4,0.1,7.4,2.7,6.4,8.1l-3.7,20.5c-0.7,3.9-3.3,6.7-6.2,6.6l-15.3-0.4
			c-4-0.1-7.4-3.3-6.4-8.6l3.6-19.9C58,71.2,60.6,68.4,63.5,68.5z"/>
		
			<linearGradient id="SVGID_10_" gradientUnits="userSpaceOnUse" x1="70.3032" y1="89.7554" x2="70.3032" y2="76.6152" gradientTransform="matrix(1 9.780300e-03 -1.176498e-02 1.2028 0.8206 -15.1623)">
			<stop  offset="0" style="stop-color:#FFFFFF"/>
			<stop  offset="0.6456" style="stop-color:#EEEEEE"/>
		</linearGradient>
		<path class="st15" d="M66.4,77.6l9.5,0.2c2.5,0,4.2,2.4,3.7,4.8l-1.9,8c-0.4,1.8-2,3-3.8,2.9l-9.4-0.2c-2.4-0.1-4.2-2.3-3.7-4.7
			l1.9-8C63,78.8,64.6,77.6,66.4,77.6z"/>
		
			<linearGradient id="SVGID_11_" gradientUnits="userSpaceOnUse" x1="68.7207" y1="81.4984" x2="79.2076" y2="91.9852" gradientTransform="matrix(1.0015 9.697576e-06 0.2373 -0.9985 -24.4976 171.7647)">
			<stop  offset="6.796116e-02" style="stop-color:#FF3A3A"/>
			<stop  offset="0.8835" style="stop-color:#6F3FAF"/>
		</linearGradient>
		<path class="st16" d="M68.4,84.4l-1.5,0c-0.4,0-0.7-0.4-0.6-0.8l0.4-1.5c0.1-0.4,0.5-0.8,1-0.8l1.5,0c0.4,0,0.7,0.4,0.6,0.8
			l-0.4,1.5C69.3,84,68.9,84.4,68.4,84.4z M67.5,81.8c-0.2,0-0.3,0.1-0.4,0.3l-0.4,1.5c0,0.2,0.1,0.3,0.2,0.3l1.5,0
			c0.2,0,0.3-0.1,0.4-0.3l0.4-1.5c0-0.2-0.1-0.3-0.2-0.3L67.5,81.8L67.5,81.8z M67.3,88.9l-1.5,0c-0.4,0-0.7-0.4-0.6-0.8l0.4-1.5
			c0.1-0.4,0.5-0.8,1-0.8l1.5,0c0.4,0,0.7,0.4,0.6,0.8l-0.4,1.5C68.2,88.5,67.8,88.9,67.3,88.9z M66.4,86.3c-0.2,0-0.3,0.1-0.4,0.3
			l-0.4,1.5c0,0.2,0.1,0.3,0.2,0.3l1.5,0c0.2,0,0.3-0.1,0.4-0.3l0.4-1.5c0-0.2-0.1-0.3-0.2-0.3L66.4,86.3z M73.7,84.4l-1.5,0
			c-0.4,0-0.7-0.4-0.6-0.8l0.4-1.5c0.1-0.4,0.5-0.8,1-0.8l1.5,0c0.4,0,0.7,0.4,0.6,0.8l-0.4,1.5C74.6,84,74.2,84.4,73.7,84.4z
			 M72.8,81.8c-0.2,0-0.3,0.1-0.4,0.3l-0.4,1.5c0,0.2,0.1,0.3,0.2,0.3l1.5,0c0.2,0,0.3-0.1,0.4-0.3l0.4-1.5c0-0.2-0.1-0.3-0.2-0.3
			L72.8,81.8L72.8,81.8z M70.6,84.1l0.6-2.6c0-0.1-0.1-0.2-0.2-0.2c-0.1,0-0.3,0.1-0.3,0.2l-0.6,2.6c0,0.1,0.1,0.2,0.2,0.2
			S70.6,84.2,70.6,84.1z M73.7,87l0.5-2c0-0.1-0.1-0.3-0.2-0.3l-2.4,0c-0.1,0-0.3,0.1-0.3,0.3L70.9,87c0,0.1,0.1,0.3,0.2,0.3
			c0.1,0,0.3-0.1,0.3-0.3l0.4-1.7l1.8,0L73.2,87c0,0.1,0.1,0.3,0.2,0.3C73.6,87.3,73.7,87.2,73.7,87z M73.7,88.1
			c0-0.1-0.1-0.3-0.2-0.3l-3.7,0l0.7-2.8c0-0.1-0.1-0.3-0.2-0.3l-4.1,0c-0.1,0-0.3,0.1-0.3,0.3c0,0.1,0.1,0.3,0.2,0.3l3.8,0
			l-0.7,2.8c0,0.1,0.1,0.3,0.2,0.3l4,0C73.5,88.4,73.6,88.2,73.7,88.1z M66.1,80.9c0.1-0.2,0.3-0.4,0.5-0.4h0.8
			c0.2,0,0.4-0.2,0.4-0.3l0,0c0-0.2-0.1-0.3-0.3-0.3l-0.8,0c-0.6,0-1.2,0.5-1.4,1.1l-0.2,0.7c0,0.2,0.1,0.3,0.3,0.3l0,0
			c0.2,0,0.4-0.2,0.4-0.3L66.1,80.9z M75.9,80.4c0.2,0,0.4,0.2,0.3,0.4l-0.2,0.7c0,0.2,0.1,0.3,0.3,0.3l0,0c0.2,0,0.4-0.2,0.4-0.3
			l0.2-0.7c0.1-0.6-0.2-1.1-0.9-1.1l-0.8,0c-0.2,0-0.4,0.2-0.4,0.3l0,0c0,0.2,0.1,0.3,0.3,0.3L75.9,80.4z M64.4,89.9
			c-0.2,0-0.4-0.2-0.3-0.4l0.2-0.7c0-0.2-0.1-0.3-0.3-0.3l0,0c-0.2,0-0.4,0.2-0.4,0.3l-0.2,0.7c-0.1,0.6,0.2,1.1,0.9,1.1l0.8,0
			c0.2,0,0.4-0.2,0.4-0.3l0,0c0-0.2-0.1-0.3-0.3-0.3L64.4,89.9L64.4,89.9z M74.2,89.4c-0.1,0.2-0.3,0.4-0.5,0.4l-0.8,0
			c-0.2,0-0.4,0.2-0.4,0.3l0,0c0,0.2,0.1,0.3,0.3,0.3l0.8,0c0.6,0,1.2-0.5,1.4-1.1l0.2-0.7c0-0.2-0.1-0.3-0.3-0.3l0,0
			c-0.2,0-0.4,0.2-0.4,0.3L74.2,89.4L74.2,89.4z"/>
	</g>
</g>
<g>
	<linearGradient id="SVGID_12_" gradientUnits="userSpaceOnUse" x1="87.8791" y1="120.9424" x2="87.8791" y2="116.375">
		<stop  offset="0" style="stop-color:#EBCDA7"/>
		<stop  offset="1" style="stop-color:#E1C39D"/>
	</linearGradient>
	<path class="st17" d="M88.3,116.4c1,0,1.9,0.7,1.9,2.3s-1.3,2.2-2.3,2.2c-1.1,0-2.1-1.1-2.1-2.3S87.2,116.4,88.3,116.4z"/>
	<path class="st18" d="M87.9,117.4c0.3,0.4,0.4,1.9,0,2.5c0.3,0.2,1.2,0,1.4-0.4c0.2-0.4,0.2-1.8,0-2.1S88.3,117.3,87.9,117.4z"/>
</g>
<g>
	<linearGradient id="SVGID_13_" gradientUnits="userSpaceOnUse" x1="89.8051" y1="114.2309" x2="89.8051" y2="106.8919">
		<stop  offset="0" style="stop-color:#EBCDA7"/>
		<stop  offset="1" style="stop-color:#E1C39D"/>
	</linearGradient>
	<path class="st19" d="M90.7,106.9c0,0,2-0.3,2,3.3s-1.5,3.8-1.5,3.8s-4.4,1.4-4.3-3.3C86.9,106.1,90.7,106.9,90.7,106.9z"/>
	<path class="st18" d="M88.9,108.3c0.6,0.8,0.8,3.4,0,4.6c0.5,0.4,2.2,0,2.6-0.8c0.3-0.7,0.4-3.4,0-3.8S89.5,108,88.9,108.3z"/>
</g>
<g>
	
		<linearGradient id="SVGID_14_" gradientUnits="userSpaceOnUse" x1="87.7114" y1="101.8999" x2="87.7114" y2="94.0719" gradientTransform="matrix(1.0273 4.638450e-02 -5.319869e-02 1.1782 6.2986 -21.456)">
		<stop  offset="0" style="stop-color:#EBCDA7"/>
		<stop  offset="1" style="stop-color:#E1C39D"/>
	</linearGradient>
	<path class="st20" d="M87.5,98.8l4.1-4.7c0.8-1,2.2-0.8,2.9,0.3c0.1,0.2,0.3,0.4,0.4,0.7c1.2,2.4-0.4,4-2.7,5.6
		c-0.8,0.5-1.7,1.1-2.6,1.6c-1.3,0.8-2.8-0.4-2.7-2v0C87,99.7,87.2,99.2,87.5,98.8z"/>
	<path class="st18" d="M88.1,99.7c-0.4,1,0.8,1.8,1.2,1.8s2.3-1.1,2.7-1.7c0.3-0.9-0.7-2.4-1.8-2.2C89.2,98.1,88.4,99,88.1,99.7z"/>
</g>
</svg>
