<?xml version="1.0" encoding="utf-8"?>
<!-- Generator: Adobe Illustrator 22.0.1, SVG Export Plug-In . SVG Version: 6.00 Build 0)  -->
<svg version="1.1" id="Ebene_1" xmlns="http://www.w3.org/2000/svg" xmlns:xlink="http://www.w3.org/1999/xlink" x="0px" y="0px"
	 viewBox="0 0 170.1 170.1" style="enable-background:new 0 0 170.1 170.1;" xml:space="preserve">
<style type="text/css">
	.st0{fill:url(#Background_1_);}
	.st1{fill:url(#SVGID_1_);}
	.st2{fill:#F7D8B5;}
	.st3{fill:#EDCEAB;}
	.st4{fill:#202020;}
	.st5{fill:url(#SVGID_2_);stroke:#000000;stroke-width:0.25;stroke-miterlimit:10;}
	.st6{fill:#1A6E57;}
	.st7{fill:#0D3B2E;}
	.st8{fill:#F9CB91;}
	.st9{fill:#0F538C;}
	.st10{fill:#054982;}
	.st11{fill:url(#SVGID_3_);}
	.st12{fill:#FFE2BF;}
	.st13{fill:url(#SVGID_4_);}
	.st14{fill:url(#SVGID_5_);}
	.st15{fill:url(#SVGID_6_);}
	.st16{fill:url(#SVGID_7_);}
	.st17{fill:#FFFFFF;}
	.st18{fill:url(#SVGID_8_);}
	.st19{fill:url(#SVGID_9_);}
	.st20{fill:url(#SVGID_10_);}
</style>
<linearGradient id="Background_1_" gradientUnits="userSpaceOnUse" x1="46.3015" y1="152.1354" x2="123.7773" y2="17.9433">
	<stop  offset="0.4466" style="stop-color:#C06AFF"/>
	<stop  offset="1" style="stop-color:#A400D4"/>
</linearGradient>
<circle id="Background" class="st0" cx="85" cy="85" r="77.5"/>
<g>
	<g>
		<linearGradient id="SVGID_1_" gradientUnits="userSpaceOnUse" x1="24.8384" y1="139.7437" x2="102.3142" y2="5.5516">
			<stop  offset="0.4466" style="stop-color:#C06AFF"/>
			<stop  offset="1" style="stop-color:#A400D4"/>
		</linearGradient>
		<polygon class="st1" points="54.9,83.9 51.1,90.8 54.9,91.6 		"/>
		<path class="st2" d="M47.8,111.4c4.4,3.4,19.5-23.9,19.9-26.9S54.2,77,54.2,77l-8.9,14.1c-0.4,0.7-1,1.2-1.8,1.5
			c-5.8,2.6-32.4,14.7-32.7,14.8c1.8,6,4.3,11.7,7.4,17l26.4-13.3C45.7,110.6,46.9,110.7,47.8,111.4z M54.9,83.9v7.7l-3.8-0.8
			L54.9,83.9z"/>
	</g>
	<path class="st3" d="M71,92.8c0,0,1.8-0.9,2.5,0.3c0.7,1.2,1,2.6-0.2,3.8S69.8,97,69.8,97L71,92.8z"/>
</g>
<g id="Phone1">
	<polygon class="st4" points="62,126.9 47.6,110.2 60.3,46.3 74.7,63 	"/>
	<linearGradient id="SVGID_2_" gradientUnits="userSpaceOnUse" x1="42.3464" y1="105.3227" x2="79.8087" y2="67.8604">
		<stop  offset="0" style="stop-color:#6F3FAF"/>
		<stop  offset="0.733" style="stop-color:#EEEEEE"/>
	</linearGradient>
	<polygon class="st5" points="61.8,124.8 48.3,109.7 60.4,48.4 73.7,63.8 	"/>
	<polygon class="st6" points="60.3,46.3 63.5,46.3 77.7,63 74.7,63 	"/>
	<polygon class="st7" points="77.7,63 65,126.9 62,126.9 74.7,63 	"/>
</g>
<g>
	<g>
		<path class="st8" d="M117.9,86.3c-1.2-0.4-2.1-1.3-2.6-2.5l-5.2-12.1c0,0-10.2,8.7-11.2,11.2c-1,2.6,5.3,2.9,7.4,16.6
			c0.6,3.9-2.5,12.6,1.4,14.6c3.4,1.8,9.4,0.7,12.9-2c0.5-0.4,1.1-0.5,1.7-0.2l29.2,13c4.2-6.9,7.3-14.4,9.1-22.5L117.9,86.3z"/>
	</g>
	<path class="st8" d="M95.8,93c0,0-1.7-1.1-2.5,0S92,95.4,93,96.7c1,1.3,3.5,0.6,3.5,0.6L95.8,93z"/>
</g>
<g id="Phone2">
	<path class="st4" d="M105.6,48L91.3,64.8l12.9,63.9l14.4-16.8L105.6,48z M92.1,64.8l2.5-2.8l0,0l8.7-10l0,0.1l2.4-2.8l12.4,62.7
		l-13.4,15.3L92.1,64.8z"/>
	<polygon class="st9" points="105.6,48 103.3,48 89.3,64.8 91.3,64.8 	"/>
	<polygon class="st10" points="89.3,64.8 102,128.7 104.2,128.7 91.3,64.8 	"/>
	<path class="st4" d="M105.6,49.2l-2.4,2.8l0.1,1.1c0,0.5-0.1,1-0.4,1.4c-1.3,1.6-4.9,5.8-6.3,7.4c-0.4,0.4-1,0.6-1.5,0.3L94.5,62
		l-2.5,2.8l12.6,62.4l13.4-15.3L105.6,49.2z"/>
	<linearGradient id="SVGID_3_" gradientUnits="userSpaceOnUse" x1="85.8697" y1="68.9654" x2="124.3897" y2="107.4853">
		<stop  offset="0.2767" style="stop-color:#EEEEEE"/>
		<stop  offset="1" style="stop-color:#FF3A3A"/>
	</linearGradient>
	<path class="st11" d="M105.6,49.2l-2.4,2.8l0.1,1.1c0,0.5-0.1,1-0.4,1.4c-1.3,1.6-4.9,5.8-6.3,7.4c-0.4,0.4-1,0.6-1.5,0.3L94.5,62
		l-2.5,2.8l12.6,62.4l13.4-15.3L105.6,49.2z"/>
	<path class="st4" d="M94.5,61.9L94.5,61.9l0.5,0.3c0.5,0.3,1.1,0.1,1.5-0.3c1.4-1.6,5-5.8,6.3-7.4c0.3-0.4,0.5-0.9,0.4-1.4
		l-0.1-1.1l0-0.1"/>
</g>
<g id="fingers_l">
	<g>
		<path class="st3" d="M68.4,108c0.9-0.3,2.3,0.2,3.4,0.5c1.1,0.3,1.8,3.1,0.9,4.5s-4.8,0.3-5.6,0c-0.8-0.3-1.1-2-0.7-3.1
			S67.5,108.3,68.4,108z"/>
		<path class="st12" d="M68.1,109.7l-0.4,1.5c-0.2,0.6,0.2,1.1,0.8,1.3l0.2,0.1c0.5,0.2,1.1-0.1,1.3-0.6c0.2-0.6,0.4-1.4,0.5-2
			c0.1-0.4-0.2-0.7-0.6-0.8c-0.3,0-0.6-0.1-0.8-0.1C68.5,109.1,68.2,109.3,68.1,109.7z"/>
	</g>
	<g>
		<path class="st3" d="M69.2,99.7c0.8-0.3,3.3,0.1,4.3,0.5c1,0.3,1.5,3.3,0.8,4.8c-0.8,1.5-5.5,0.4-6.2,0.1c-0.7-0.3-1-2.1-0.6-3.3
			S68.4,100,69.2,99.7z"/>
		<path class="st12" d="M69,101.4l-0.4,1.7c-0.2,0.6,0.3,1.3,1,1.4l0.2,0.1c0.6,0.2,1.3-0.2,1.5-0.7c0.2-0.7,0.4-1.6,0.4-2.3
			c0-0.4-0.3-0.8-0.8-0.8c-0.3,0-0.7-0.1-1-0.1C69.5,100.7,69.1,101,69,101.4z"/>
	</g>
	<g>
		<path class="st3" d="M66.4,115.8c0.7-0.2,3,0.1,3.8,0.3c0.9,0.2,1.3,2.3,0.7,3.4c-0.7,1.1-4.9,0.3-5.5,0.1
			c-0.6-0.2-0.9-1.5-0.6-2.3C65.1,116.5,65.7,116,66.4,115.8z"/>
		<path class="st12" d="M68.2,116.9l-1.4-0.2c-0.5-0.1-1,0.3-1.1,1l0,0.2c-0.1,0.6,0.2,1.1,0.7,1.2c0.6,0.1,1.3,0.2,1.8,0.2
			c0.3,0,0.6-0.3,0.6-0.7c0-0.3,0-0.6,0-0.8C68.7,117.2,68.5,116.9,68.2,116.9z"/>
	</g>
</g>
<g id="fingers_r">
	<g>
		<path class="st8" d="M96.7,99.7c-0.8-0.3-3.3,0.1-4.3,0.5c-1,0.3-1.5,3.3-0.8,4.8c0.8,1.5,5.5,0.4,6.2,0.1c0.7-0.3,1-2.1,0.6-3.3
			S97.5,100,96.7,99.7z"/>
		<path class="st12" d="M96.9,101.4l0.4,1.7c0.2,0.6-0.3,1.3-1,1.4l-0.2,0.1c-0.6,0.2-1.3-0.2-1.5-0.7c-0.2-0.7-0.4-1.6-0.4-2.3
			c0-0.4,0.3-0.8,0.8-0.8c0.3,0,0.7-0.1,1-0.1C96.4,100.7,96.8,101,96.9,101.4z"/>
	</g>
	<g>
		<path class="st8" d="M98,107.5c-0.9-0.3-2.3,0.2-3.4,0.5s-1.8,3.1-0.9,4.5s4.8,0.3,5.6,0s1.1-2,0.7-3.1S98.9,107.7,98,107.5z"/>
		<path class="st12" d="M98.3,109.1l0.4,1.5c0.2,0.6-0.2,1.1-0.8,1.3l-0.2,0.1c-0.5,0.2-1.1-0.1-1.3-0.6c-0.2-0.6-0.4-1.4-0.5-2
			c-0.1-0.4,0.2-0.7,0.6-0.8c0.3,0,0.6-0.1,0.8-0.1C97.8,108.5,98.2,108.7,98.3,109.1z"/>
	</g>
	<g>
		<path class="st8" d="M100.1,114.8c-0.7-0.2-3,0.1-3.8,0.3c-0.9,0.2-1.3,2.3-0.7,3.4c0.7,1.1,4.9,0.3,5.5,0.1
			c0.6-0.2,0.9-1.5,0.6-2.3C101.4,115.5,100.8,115.1,100.1,114.8z"/>
		<path class="st12" d="M98.3,115.9l1.4-0.2c0.5-0.1,1,0.3,1.1,1l0,0.2c0.1,0.6-0.2,1.1-0.7,1.2c-0.6,0.1-1.3,0.2-1.8,0.2
			c-0.3,0-0.6-0.3-0.6-0.7c0-0.3,0-0.6,0-0.8C97.8,116.3,98,116,98.3,115.9z"/>
	</g>
</g>
<image style="display:none;overflow:visible;" width="1013" height="1022" xlink:href="C5B79976.jpg"  transform="matrix(0.1679 0 0 0.1664 0 0)">
</image>
<g>
	<g id="Ebene_3">
		<g>
			
				<linearGradient id="SVGID_4_" gradientUnits="userSpaceOnUse" x1="105.3884" y1="104.8599" x2="111.592" y2="104.8599" gradientTransform="matrix(0.6663 -0.526 0.3451 1.2285 -2.9047 32.311)">
				<stop  offset="0.1931" style="stop-color:#AF8A82"/>
				<stop  offset="0.802" style="stop-color:#8E665E"/>
			</linearGradient>
			<path class="st13" d="M103.9,98l1.3,13.4c0,0.3,0.2,0.3,0.2,0l1.2-12.9"/>
			
				<linearGradient id="SVGID_5_" gradientUnits="userSpaceOnUse" x1="108.9476" y1="98.1044" x2="111.6225" y2="102.7374" gradientTransform="matrix(0.6663 -0.526 0.3451 1.2285 -2.9047 32.311)">
				<stop  offset="0.1931" style="stop-color:#FFB125"/>
				<stop  offset="0.7871" style="stop-color:#DB8E02"/>
			</linearGradient>
			<path class="st14" d="M106.9,99l-3.4-0.8c-0.3-0.1-0.5-0.6-0.5-1.1l0,0c0-0.6,0.2-0.9,0.5-0.9l3.4,0.8c0.3,0.1,0.5,0.6,0.5,1.1
				l0,0C107.4,98.7,107.2,99.1,106.9,99z"/>
			
				<linearGradient id="SVGID_6_" gradientUnits="userSpaceOnUse" x1="108.2259" y1="97.3017" x2="116.4965" y2="97.3017" gradientTransform="matrix(0.6663 -0.526 0.3451 1.2285 -2.9047 32.311)">
				<stop  offset="0.1931" style="stop-color:#BBBBBB"/>
				<stop  offset="0.7871" style="stop-color:#909090"/>
			</linearGradient>
			<path class="st15" d="M108.6,92c0.2,0,0.2,0.4,0.1,0.6l-1.2,3.1c-0.4,1-0.9,1.5-1.4,1.4l-2-0.5c-0.5-0.1-1-0.8-1.4-2l-1.2-3.7
				c-0.1-0.3,0-0.6,0.1-0.5L108.6,92z"/>
		</g>
	</g>
	<g id="Ebene_1_1_">
		<g>
			
				<linearGradient id="SVGID_7_" gradientUnits="userSpaceOnUse" x1="120.5594" y1="84.2052" x2="110.6508" y2="94.1138" gradientTransform="matrix(0.6663 -0.526 0.3451 1.2285 -2.9047 32.311)">
				<stop  offset="0.2574" style="stop-color:#FF3A3A"/>
				<stop  offset="0.7525" style="stop-color:#FF703A"/>
			</linearGradient>
			<path class="st16" d="M100.8,77.7c-0.1,1.3-0.4,4,0.2,7.5c1,5.2,4.8,6.8,6.9,3.6c2.5-4-0.3-14.7-0.8-14.6
				c-0.3,0.1-0.2,1.8-0.6,1.8c-0.4-0.1-0.7-1.2-0.9-2c-0.1-0.4-0.2-0.6-0.3-0.9c-0.5-1.2-1.1-2.2-1.8-2.8c-0.1-0.1-0.1-0.1-0.2-0.2
				c-0.3-0.2-0.5-0.1-0.6,0c-0.5,0.7,1,4,0.3,6.8c-0.2,0.8-0.9,1.4-1.2-0.4C101.3,74.5,100.9,75.7,100.8,77.7z"/>
			<path class="st17" d="M105.3,79.7c-0.3,0.1-0.2,1.9-0.6,2c-0.5,0.1-0.4-0.6-0.8-0.5c-0.4,0.1-0.5,1.6-0.2,3.7
				c0.3,2.1,1.1,3.3,2.1,2.5c0.7-0.5,1-2.2,0.7-3.8C106.3,82.1,105.6,79.6,105.3,79.7z"/>
		</g>
	</g>
</g>
<g id="Ebene_3_1_">
	<g>
		
			<linearGradient id="SVGID_8_" gradientUnits="userSpaceOnUse" x1="52.6162" y1="72.4639" x2="58.5496" y2="72.4639" gradientTransform="matrix(0.5549 0.646 0.2707 -1.487 5.2794 170.5959)">
			<stop  offset="0.1931" style="stop-color:#AF8A82"/>
			<stop  offset="0.802" style="stop-color:#8E665E"/>
		</linearGradient>
		<path class="st18" d="M56.8,90.6l-4,13.5c-0.1,0.2,0,0.6,0.1,0.5l5.3-8.2"/>
		
			<linearGradient id="SVGID_9_" gradientUnits="userSpaceOnUse" x1="55.353" y1="79.7176" x2="58.578" y2="74.1317" gradientTransform="matrix(0.5549 0.646 0.2707 -1.487 5.2794 170.5959)">
			<stop  offset="0.1931" style="stop-color:#FFB125"/>
			<stop  offset="0.7871" style="stop-color:#DB8E02"/>
		</linearGradient>
		<path class="st19" d="M58.2,97.5l-1.8-7.3c-0.1-0.6-0.1-1.4,0.1-1.9l0,0c0.2-0.4,0.5-0.3,0.6,0.2l1.8,7.3c0.1,0.6,0.1,1.4-0.1,1.9
			l0,0C58.6,98.2,58.4,98.1,58.2,97.5z"/>
		
			<linearGradient id="SVGID_10_" gradientUnits="userSpaceOnUse" x1="53.9654" y1="80.2665" x2="63.6085" y2="80.2665" gradientTransform="matrix(0.5549 0.646 0.2707 -1.487 5.2794 170.5959)">
			<stop  offset="0.1931" style="stop-color:#BBBBBB"/>
			<stop  offset="0.7871" style="stop-color:#909090"/>
		</linearGradient>
		<path class="st20" d="M61.7,95c0.1,0.3,0,0.7-0.1,0.8L59.8,96c-0.6,0.1-1-0.5-1.3-1.6l-1-4.2c-0.3-1.1-0.3-2.7-0.1-4.3l0.6-5.3
			c0-0.4,0.2-0.5,0.3-0.2L61.7,95z"/>
	</g>
</g>
</svg>
