<?xml version="1.0" encoding="utf-8"?>
<!-- Generator: Adobe Illustrator 22.0.1, SVG Export Plug-In . SVG Version: 6.00 Build 0)  -->
<svg version="1.1" id="Ebene_1" xmlns="http://www.w3.org/2000/svg" xmlns:xlink="http://www.w3.org/1999/xlink" x="0px" y="0px"
	 viewBox="0 0 170.1 170.1" style="enable-background:new 0 0 170.1 170.1;" xml:space="preserve">
<style type="text/css">
	.st0{fill:url(#Background_1_);}
	.st1{fill:url(#SVGID_1_);}
	.st2{fill:url(#SVGID_2_);}
	.st3{fill:url(#SVGID_3_);}
	.st4{fill:url(#SVGID_4_);}
	.st5{fill:url(#SVGID_5_);}
	.st6{fill:url(#SVGID_6_);}
	.st7{fill:#202020;}
	.st8{fill:#0F538C;}
	.st9{fill:#054982;}
	.st10{fill:url(#SVGID_7_);stroke:#000000;stroke-width:0.25;stroke-miterlimit:10;}
	.st11{fill:url(#SVGID_8_);}
	.st12{fill:url(#SVGID_9_);}
	.st13{fill:url(#SVGID_10_);}
	.st14{fill:#EBDAC4;}
	.st15{fill:url(#SVGID_11_);}
	.st16{fill:url(#SVGID_12_);}
</style>
<linearGradient id="Background_1_" gradientUnits="userSpaceOnUse" x1="46.2829" y1="19.7537" x2="123.7958" y2="154.0101" gradientTransform="matrix(1 0 0 -1 0 171.9213)">
	<stop  offset="0.1505" style="stop-color:#FF703A"/>
	<stop  offset="0.7087" style="stop-color:#FF3A3A"/>
</linearGradient>
<circle id="Background_2_" class="st0" cx="85" cy="85" r="77.5"/>
<g>
	
		<linearGradient id="SVGID_1_" gradientUnits="userSpaceOnUse" x1="32.3738" y1="27.8091" x2="109.8867" y2="162.0655" gradientTransform="matrix(1 0 0 -1 0 171.9213)">
		<stop  offset="0.4466" style="stop-color:#C06AFF"/>
		<stop  offset="1" style="stop-color:#A400D4"/>
	</linearGradient>
	<path class="st1" d="M51.5,142.1l4.9-7.9c1.4-2.2,3.8-3.9,6.6-4.7l-18.8-15.3c0,0-13.9,6.8-24.2,12.9c6.4,9.8,14.8,18.1,24.8,24.2
		C48,147.2,51.3,141.9,51.5,142.1z"/>
	<linearGradient id="SVGID_2_" gradientUnits="userSpaceOnUse" x1="41.4946" y1="167.5883" x2="41.4946" y2="89.3592">
		<stop  offset="0" style="stop-color:#EBCDA7"/>
		<stop  offset="1" style="stop-color:#E1C39D"/>
	</linearGradient>
	<path class="st2" d="M56.4,134.2c1.4-2.2,3.8-3.9,6.6-4.7l-18.8-15.3c0,0-13.9,6.8-24.2,12.9c6.4,9.8,14.8,18.1,24.8,24.2
		C48,147.2,56.4,134.2,56.4,134.2z"/>
	
		<linearGradient id="SVGID_3_" gradientUnits="userSpaceOnUse" x1="44.3147" y1="20.8901" x2="121.8276" y2="155.1465" gradientTransform="matrix(1 0 0 -1 0 171.9213)">
		<stop  offset="0.4466" style="stop-color:#C06AFF"/>
		<stop  offset="1" style="stop-color:#A400D4"/>
	</linearGradient>
	<path class="st3" d="M65.9,128.7l17-7.6L59.6,89.4l-11.5,21.4c-0.8,1.5-2.2,2.7-3.9,3.4L63,129.5L65.9,128.7z"/>
	
		<linearGradient id="SVGID_4_" gradientUnits="userSpaceOnUse" x1="58.1074" y1="44.7798" x2="109.6485" y2="134.0518" gradientTransform="matrix(1 0 0 -1 0 171.9213)">
		<stop  offset="0.4466" style="stop-color:#C06AFF"/>
		<stop  offset="1" style="stop-color:#A400D4"/>
	</linearGradient>
	<path class="st4" d="M65.9,128.7l17-7.6L59.6,89.4l-11.5,21.4c-0.8,1.5-2.2,2.7-3.9,3.4L63,129.5L65.9,128.7z"/>
	<linearGradient id="SVGID_5_" gradientUnits="userSpaceOnUse" x1="63.5675" y1="167.5883" x2="63.5675" y2="89.3592">
		<stop  offset="0" style="stop-color:#EBCDA7"/>
		<stop  offset="1" style="stop-color:#E1C39D"/>
	</linearGradient>
	<path class="st5" d="M65.9,128.7l17-7.6L59.6,89.4l-11.5,21.4c-0.8,1.5-2.2,2.7-3.9,3.4L63,129.5L65.9,128.7z"/>
</g>
<linearGradient id="SVGID_6_" gradientUnits="userSpaceOnUse" x1="104.3508" y1="87.4779" x2="104.3508" y2="78.2562" gradientTransform="matrix(0.9728 -0.2318 0.2318 0.9728 -16.3852 23.8579)">
	<stop  offset="0" style="stop-color:#EBCDA7"/>
	<stop  offset="1" style="stop-color:#E1C39D"/>
</linearGradient>
<path class="st6" d="M100.5,82.2l3.2-5.8c0.7-1.2,2.2-1.5,3.3-0.6c0.2,0.2,0.4,0.3,0.6,0.6c2,1.9,0.7,4-1.4,6.2
	c-0.7,0.8-1.6,1.6-2.4,2.3c-1.2,1.1-3.2,0.5-3.6-1.1v0C100.2,83.2,100.2,82.6,100.5,82.2z"/>
<g id="Ph1_1_">
	<g id="Ph1">
		<polygon class="st7" points="96.8,129.3 52.5,128.3 66.8,38.3 111.1,39.3 		"/>
		<polygon class="st8" points="66.8,38.3 70.2,37.9 112.2,38.9 111.1,39.3 		"/>
		<polygon class="st9" points="112.2,38.9 111.1,39.3 96.8,129.3 97.8,129.3 		"/>
		<linearGradient id="SVGID_7_" gradientUnits="userSpaceOnUse" x1="81.7914" y1="127.6213" x2="81.7914" y2="39.9911">
			<stop  offset="0" style="stop-color:#FF3A3A"/>
			<stop  offset="0.6456" style="stop-color:#EEEEEE"/>
		</linearGradient>
		<polygon class="st10" points="96.2,127.6 53.6,126.6 67.4,40 110,41 		"/>
	</g>
	
		<linearGradient id="SVGID_8_" gradientUnits="userSpaceOnUse" x1="81.6736" y1="93.0332" x2="81.6736" y2="67.7019" gradientTransform="matrix(1.0941 -1.559568e-02 2.186689e-02 1.5341 -8.6163 -40.9807)">
		<stop  offset="0" style="stop-color:#FFFFFF"/>
		<stop  offset="0.6456" style="stop-color:#EEEEEE"/>
	</linearGradient>
	<path class="st11" d="M74.5,61.7l20,0c5.2,0,9.2,2.6,8.1,8.5l-3.8,22.7c-0.8,4.3-4.1,7.4-7.9,7.4l-19.8,0c-5.2,0-9.9-2.4-8.8-8.3
		l4.3-22.9C67.4,64.9,70.7,61.7,74.5,61.7z"/>
	
		<linearGradient id="SVGID_9_" gradientUnits="userSpaceOnUse" x1="73.4348" y1="79.5002" x2="97.3156" y2="103.381" gradientTransform="matrix(1.0015 9.697576e-06 0.2373 -0.9985 -24.4976 171.7647)">
		<stop  offset="6.796116e-02" style="stop-color:#FF3A3A"/>
		<stop  offset="0.8835" style="stop-color:#6F3FAF"/>
	</linearGradient>
	<path class="st12" d="M78.7,78.6l-3.5,0c-1,0-1.6-0.8-1.4-1.8l0.8-3.5c0.2-1,1.2-1.8,2.3-1.8l3.5,0c1,0,1.6,0.8,1.4,1.8L81,76.8
		C80.7,77.8,79.7,78.6,78.7,78.6z M76.6,72.7c-0.4,0-0.7,0.3-0.8,0.7L75,76.8c-0.1,0.4,0.1,0.7,0.5,0.7l3.5,0c0.4,0,0.7-0.3,0.8-0.7
		l0.8-3.5c0.1-0.4-0.1-0.7-0.5-0.7L76.6,72.7L76.6,72.7z M76.3,89l-3.5,0c-1,0-1.6-0.8-1.4-1.8l0.8-3.5c0.2-1,1.2-1.8,2.3-1.8l3.5,0
		c1,0,1.6,0.8,1.4,1.8l-0.8,3.5C78.3,88.1,77.3,89,76.3,89z M74.2,83c-0.4,0-0.7,0.3-0.8,0.7l-0.8,3.5c-0.1,0.4,0.1,0.7,0.5,0.7
		l3.5,0c0.4,0,0.7-0.3,0.8-0.7l0.8-3.5c0.1-0.4-0.1-0.7-0.5-0.7L74.2,83z M90.8,78.6l-3.5,0c-1,0-1.6-0.8-1.4-1.8l0.8-3.5
		c0.2-1,1.2-1.8,2.3-1.8l3.5,0c1,0,1.6,0.8,1.4,1.8L93,76.8C92.8,77.8,91.8,78.6,90.8,78.6z M88.7,72.7c-0.4,0-0.7,0.3-0.8,0.7
		l-0.8,3.5c-0.1,0.4,0.1,0.7,0.5,0.7l3.5,0c0.4,0,0.7-0.3,0.8-0.7l0.8-3.5c0.1-0.4-0.1-0.7-0.5-0.7L88.7,72.7L88.7,72.7z M83.7,78.1
		l1.4-5.9c0.1-0.3-0.1-0.5-0.5-0.5c-0.3,0-0.6,0.2-0.7,0.5l-1.4,5.9c-0.1,0.3,0.1,0.5,0.5,0.5C83.3,78.6,83.7,78.4,83.7,78.1z
		 M90.9,84.7l1.1-4.5c0.1-0.3-0.1-0.6-0.5-0.6l-5.4,0c-0.3,0-0.7,0.3-0.7,0.6l-1.1,4.4c-0.1,0.3,0.1,0.6,0.5,0.6
		c0.3,0,0.7-0.3,0.7-0.6l0.9-3.9l4.2,0l-0.9,3.9c-0.1,0.3,0.1,0.6,0.5,0.6C90.5,85.3,90.8,85,90.9,84.7z M90.7,87.2
		c0.1-0.3-0.1-0.6-0.5-0.6l-8.4,0l1.5-6.4c0.1-0.3-0.1-0.6-0.5-0.6l-9.3,0c-0.3,0-0.7,0.3-0.7,0.6c-0.1,0.3,0.1,0.6,0.5,0.6l8.7,0
		l-1.5,6.4c-0.1,0.3,0.1,0.6,0.5,0.6l9,0C90.3,87.7,90.6,87.5,90.7,87.2z M73.5,70.7c0.1-0.5,0.7-1,1.2-1l1.7,0c0.4,0,0.9-0.4,1-0.8
		l0,0c0.1-0.4-0.2-0.8-0.6-0.8l-1.7,0c-1.4,0-2.8,1.1-3.2,2.6l-0.4,1.7c-0.1,0.4,0.2,0.8,0.6,0.8l0,0c0.4,0,0.9-0.4,1-0.8L73.5,70.7
		z M95.8,69.7c0.5,0,0.9,0.4,0.8,1l-0.4,1.7c-0.1,0.4,0.2,0.8,0.6,0.8l0,0c0.4,0,0.9-0.4,1-0.8l0.4-1.7c0.3-1.4-0.5-2.6-2-2.6
		l-1.7,0c-0.4,0-0.9,0.4-1,0.8l0,0c-0.1,0.4,0.2,0.8,0.6,0.8L95.8,69.7z M69.6,91.2c-0.5,0-0.9-0.4-0.8-1l0.4-1.7
		c0.1-0.4-0.2-0.8-0.6-0.8l0,0c-0.4,0-0.9,0.4-1,0.8l-0.4,1.7c-0.3,1.4,0.5,2.6,2,2.6l1.7,0c0.4,0,0.9-0.4,1-0.8l0,0
		c0.1-0.4-0.2-0.8-0.6-0.8L69.6,91.2L69.6,91.2z M91.9,90.2c-0.1,0.5-0.7,1-1.2,1l-1.7,0c-0.4,0-0.9,0.4-1,0.8l0,0
		c-0.1,0.4,0.2,0.8,0.6,0.8l1.7,0c1.4,0,2.8-1.1,3.2-2.6l0.4-1.7c0.1-0.4-0.2-0.8-0.6-0.8l0,0c-0.4,0-0.9,0.4-1,0.8L91.9,90.2
		L91.9,90.2z"/>
</g>
<g>
	<linearGradient id="SVGID_10_" gradientUnits="userSpaceOnUse" x1="101.1705" y1="116.2486" x2="101.1705" y2="111.6812">
		<stop  offset="0" style="stop-color:#EBCDA7"/>
		<stop  offset="1" style="stop-color:#E1C39D"/>
	</linearGradient>
	<path class="st13" d="M101.5,111.7c1,0,1.9,0.7,1.9,2.3s-1.3,2.2-2.3,2.2s-2.1-1.1-2.1-2.3S100.5,111.7,101.5,111.7z"/>
	<path class="st14" d="M101.2,112.8c0.3,0.4,0.4,1.9,0,2.5c0.3,0.2,1.2,0,1.4-0.4c0.2-0.4,0.2-1.8,0-2.1S101.5,112.6,101.2,112.8z"
		/>
</g>
<g>
	<linearGradient id="SVGID_11_" gradientUnits="userSpaceOnUse" x1="103.0965" y1="109.5371" x2="103.0965" y2="102.1981">
		<stop  offset="0" style="stop-color:#EBCDA7"/>
		<stop  offset="1" style="stop-color:#E1C39D"/>
	</linearGradient>
	<path class="st15" d="M104,102.3c0,0,2-0.3,2,3.3c0,3.6-1.5,3.8-1.5,3.8s-4.4,1.4-4.3-3.3C100.2,101.4,104,102.3,104,102.3z"/>
	<path class="st14" d="M102.2,103.7c0.6,0.8,0.8,3.4,0,4.6c0.5,0.4,2.2,0,2.6-0.8c0.3-0.7,0.4-3.4,0-3.8
		C104.3,103.2,102.8,103.3,102.2,103.7z"/>
</g>
<g>
	
		<linearGradient id="SVGID_12_" gradientUnits="userSpaceOnUse" x1="100.4173" y1="97.4159" x2="100.4173" y2="89.5879" gradientTransform="matrix(1.0273 4.638450e-02 -5.319869e-02 1.1782 6.2986 -21.456)">
		<stop  offset="0" style="stop-color:#EBCDA7"/>
		<stop  offset="1" style="stop-color:#E1C39D"/>
	</linearGradient>
	<path class="st16" d="M100.8,94.1l4.1-4.7c0.8-1,2.2-0.8,2.9,0.3c0.1,0.2,0.3,0.4,0.4,0.7c1.2,2.4-0.4,4-2.7,5.6
		c-0.8,0.5-1.7,1.1-2.6,1.6c-1.3,0.8-2.8-0.4-2.7-2l0,0C100.3,95.1,100.5,94.5,100.8,94.1z"/>
	<path class="st14" d="M101.4,95c-0.4,1,0.8,1.8,1.2,1.8s2.3-1.1,2.7-1.7c0.3-0.9-0.7-2.4-1.8-2.2C102.5,93.4,101.7,94.3,101.4,95z"
		/>
</g>
</svg>
