<?xml version="1.0" encoding="utf-8"?>
<!-- Generator: Adobe Illustrator 22.0.1, SVG Export Plug-In . SVG Version: 6.00 Build 0)  -->
<svg version="1.1" id="Ebene_1" xmlns="http://www.w3.org/2000/svg" xmlns:xlink="http://www.w3.org/1999/xlink" x="0px" y="0px"
	 viewBox="0 0 170.1 170.1" style="enable-background:new 0 0 170.1 170.1;" xml:space="preserve">
<style type="text/css">
	.st0{fill:url(#Background_1_);}
	.st1{fill:url(#SVGID_1_);}
	.st2{fill:#F7D8B5;}
	.st3{fill:#EDCEAB;}
	.st4{fill:#202020;}
	.st5{fill:url(#SVGID_2_);stroke:#000000;stroke-width:0.25;stroke-miterlimit:10;}
	.st6{fill:#E30019;}
	.st7{fill:#970011;}
	.st8{fill:#F9CB91;}
	.st9{fill:#0F538C;}
	.st10{fill:#054982;}
	.st11{fill:url(#SVGID_3_);}
	.st12{fill:#FFE2BF;}
	.st13{fill:url(#SVGID_4_);}
	.st14{fill:url(#SVGID_5_);}
	.st15{fill:url(#SVGID_6_);}
	.st16{fill:url(#SVGID_7_);}
	.st17{fill:#FFFFFF;}
	.st18{fill:url(#SVGID_8_);}
	.st19{fill:url(#SVGID_9_);}
	.st20{fill:url(#SVGID_10_);}
</style>
<linearGradient id="Background_1_" gradientUnits="userSpaceOnUse" x1="46.2019" y1="18.0131" x2="123.7148" y2="152.2694" gradientTransform="matrix(-1 0 0 -1 170 170.0788)">
	<stop  offset="0.4466" style="stop-color:#C06AFF"/>
	<stop  offset="1" style="stop-color:#A400D4"/>
</linearGradient>
<circle id="Background" class="st0" cx="85" cy="84.9" r="77.5"/>
<g>
	<g>
		
			<linearGradient id="SVGID_1_" gradientUnits="userSpaceOnUse" x1="24.829" y1="30.3789" x2="102.3048" y2="164.571" gradientTransform="matrix(-1 0 0 -1 170 170.0788)">
			<stop  offset="0.4466" style="stop-color:#C06AFF"/>
			<stop  offset="1" style="stop-color:#A400D4"/>
		</linearGradient>
		<polygon class="st1" points="115.1,91.5 118.9,90.7 115.1,83.8 		"/>
		<path class="st2" d="M125.4,111l26.4,13.3c3.1-5.3,5.6-11,7.4-17c-0.3-0.1-26.9-12.2-32.7-14.8c-0.8-0.3-1.4-0.8-1.8-1.5
			l-8.9-14.1c0,0-13.9,4.5-13.5,7.5s15.5,30.3,19.9,26.9C123.1,110.6,124.3,110.5,125.4,111z M118.9,90.7l-3.8,0.8v-7.7L118.9,90.7z
			"/>
	</g>
	<path class="st3" d="M100.2,96.9c0,0-2.3,1.1-3.5-0.1s-0.9-2.6-0.2-3.8c0.7-1.2,2.5-0.3,2.5-0.3L100.2,96.9z"/>
</g>
<g id="Phone1">
	<polygon class="st4" points="95.3,62.9 109.7,46.2 122.4,110.1 108,126.8 	"/>
	
		<linearGradient id="SVGID_2_" gradientUnits="userSpaceOnUse" x1="42.3083" y1="64.7912" x2="79.7706" y2="102.2535" gradientTransform="matrix(-1 0 0 -1 170 170.0788)">
		<stop  offset="0" style="stop-color:#6F3FAF"/>
		<stop  offset="0.733" style="stop-color:#EEEEEE"/>
	</linearGradient>
	<polygon class="st5" points="96.3,63.7 109.6,48.3 121.7,109.6 108.2,124.7 	"/>
	<polygon class="st6" points="95.3,62.9 92.3,62.9 106.5,46.2 109.7,46.2 	"/>
	<polygon class="st7" points="95.3,62.9 108,126.8 105,126.8 92.3,62.9 	"/>
</g>
<g>
	<g>
		<path class="st8" d="M9.4,102.3c1.8,8.1,4.9,15.6,9.1,22.5l29.2-13c0.6-0.3,1.2-0.2,1.7,0.2c3.5,2.7,9.5,3.8,12.9,2
			c3.9-2,0.8-10.7,1.4-14.6c2.1-13.7,8.4-14,7.4-16.6c-1-2.5-11.2-11.2-11.2-11.2l-5.2,12.1c-0.5,1.2-1.4,2.1-2.6,2.5L9.4,102.3z"/>
	</g>
	<path class="st8" d="M73.5,97.2c0,0,2.5,0.7,3.5-0.6c1-1.3,0.5-2.6-0.3-3.7s-2.5,0-2.5,0L73.5,97.2z"/>
</g>
<g id="Phone2">
	<path class="st4" d="M51.4,111.8l14.4,16.8l12.9-63.9L64.4,47.9L51.4,111.8z M65.3,127.2l-13.4-15.3l12.4-62.7l2.4,2.8v-0.1l8.7,10
		l0,0l2.5,2.8L65.3,127.2z"/>
	<polygon class="st9" points="78.7,64.7 80.7,64.7 66.7,47.9 64.4,47.9 	"/>
	<polygon class="st10" points="78.7,64.7 65.8,128.6 68,128.6 80.7,64.7 	"/>
	<path class="st4" d="M52,111.8l13.4,15.3L78,64.7l-2.5-2.8l-0.6,0.2c-0.5,0.3-1.1,0.1-1.5-0.3c-1.4-1.6-5-5.8-6.3-7.4
		c-0.3-0.4-0.4-0.9-0.4-1.4l0.1-1.1l-2.4-2.8L52,111.8z"/>
	
		<linearGradient id="SVGID_3_" gradientUnits="userSpaceOnUse" x1="85.8083" y1="101.1912" x2="124.3083" y2="62.6913" gradientTransform="matrix(-1 0 0 -1 170 170.0788)">
		<stop  offset="0.2767" style="stop-color:#EEEEEE"/>
		<stop  offset="1" style="stop-color:#FF3A3A"/>
	</linearGradient>
	<path class="st11" d="M52,111.8l13.4,15.3L78,64.7l-2.5-2.8l-8.7-10l-2.4-2.8L52,111.8z"/>
</g>
<g id="fingers_l">
	<g>
		<path class="st3" d="M103.6,109.8c0.4,1.1,0.1,2.8-0.7,3.1c-0.8,0.3-4.7,1.4-5.6,0s-0.2-4.2,0.9-4.5s2.5-0.8,3.4-0.5
			S103.2,108.7,103.6,109.8z"/>
		<path class="st12" d="M100.9,109c-0.2,0-0.5,0.1-0.8,0.1c-0.4,0.1-0.7,0.4-0.6,0.8c0.1,0.6,0.3,1.4,0.5,2c0.2,0.5,0.8,0.8,1.3,0.6
			l0.2-0.1c0.6-0.2,1-0.7,0.8-1.3l-0.4-1.5C101.8,109.2,101.5,109,100.9,109z"/>
	</g>
	<g>
		<path class="st3" d="M102.5,101.7c0.4,1.2,0.1,3-0.6,3.3s-5.4,1.4-6.2-0.1c-0.7-1.5-0.2-4.5,0.8-4.8c1-0.4,3.5-0.8,4.3-0.5
			C101.6,99.9,102.1,100.5,102.5,101.7z"/>
		<path class="st12" d="M100.1,100.6c-0.3,0-0.7,0.1-1,0.1c-0.5,0-0.8,0.4-0.8,0.8c0,0.7,0.2,1.6,0.4,2.3c0.2,0.5,0.9,0.9,1.5,0.7
			l0.2-0.1c0.7-0.1,1.2-0.8,1-1.4l-0.4-1.7C100.9,100.9,100.5,100.6,100.1,100.6z"/>
	</g>
	<g>
		<path class="st3" d="M105.2,117.2c0.3,0.8,0,2.1-0.6,2.3c-0.6,0.2-4.8,1-5.5-0.1c-0.6-1.1-0.2-3.2,0.7-3.4
			c0.8-0.2,3.1-0.5,3.8-0.3C104.3,115.9,104.9,116.4,105.2,117.2z"/>
		<path class="st12" d="M101.2,117.7c0,0.2,0,0.5,0,0.8c0,0.4,0.3,0.7,0.6,0.7c0.5,0,1.2-0.1,1.8-0.2c0.5-0.1,0.8-0.6,0.7-1.2v-0.2
			c-0.1-0.7-0.6-1.1-1.1-1l-1.4,0.2C101.5,116.8,101.3,117.1,101.2,117.7z"/>
	</g>
</g>
<g id="fingers_r">
	<g>
		<path class="st8" d="M71.6,101.7c-0.4,1.2-0.1,3,0.6,3.3s5.4,1.4,6.2-0.1c0.7-1.5,0.2-4.5-0.8-4.8c-1-0.4-3.5-0.8-4.3-0.5
			S72,100.5,71.6,101.7z"/>
		<path class="st12" d="M74,100.6c0.3,0,0.7,0.1,1,0.1c0.5,0,0.8,0.4,0.8,0.8c0,0.7-0.2,1.6-0.4,2.3c-0.2,0.5-0.9,0.9-1.5,0.7
			l-0.2-0.1c-0.7-0.1-1.2-0.8-1-1.4l0.4-1.7C73.2,100.9,73.6,100.6,74,100.6z"/>
	</g>
	<g>
		<path class="st8" d="M70,109.3c-0.4,1.1-0.1,2.8,0.7,3.1s4.7,1.4,5.6,0s0.2-4.2-0.9-4.5s-2.5-0.8-3.4-0.5
			C71.1,107.6,70.4,108.2,70,109.3z"/>
		<path class="st12" d="M72.7,108.4c0.2,0,0.5,0.1,0.8,0.1c0.4,0.1,0.7,0.4,0.6,0.8c-0.1,0.6-0.3,1.4-0.5,2
			c-0.2,0.5-0.8,0.8-1.3,0.6l-0.2-0.1c-0.6-0.2-1-0.7-0.8-1.3l0.4-1.5C71.8,108.6,72.2,108.4,72.7,108.4z"/>
	</g>
	<g>
		<path class="st8" d="M68.3,116.2c-0.3,0.8,0,2.1,0.6,2.3c0.6,0.2,4.8,1,5.5-0.1c0.6-1.1,0.2-3.2-0.7-3.4c-0.8-0.2-3.1-0.5-3.8-0.3
			C69.2,115,68.6,115.4,68.3,116.2z"/>
		<path class="st12" d="M72.3,116.7c0,0.2,0,0.5,0,0.8c0,0.4-0.3,0.7-0.6,0.7c-0.5,0-1.2-0.1-1.8-0.2c-0.5-0.1-0.8-0.6-0.7-1.2v-0.2
			c0.1-0.7,0.6-1.1,1.1-1l1.4,0.2C72,115.9,72.2,116.2,72.3,116.7z"/>
	</g>
</g>
<g>
	<g id="Ebene_3">
		<g>
			
				<linearGradient id="SVGID_4_" gradientUnits="userSpaceOnUse" x1="105.3588" y1="65.2897" x2="111.5624" y2="65.2897" gradientTransform="matrix(-0.6663 -0.526 0.3451 -1.2285 114.2105 241.2527)">
				<stop  offset="0.1931" style="stop-color:#AF8A82"/>
				<stop  offset="0.802" style="stop-color:#8E665E"/>
			</linearGradient>
			<path class="st13" d="M63.4,98.4l1.2,12.9c0,0.3,0.2,0.3,0.2,0l1.3-13.4"/>
			
				<linearGradient id="SVGID_5_" gradientUnits="userSpaceOnUse" x1="108.9321" y1="72.046" x2="111.607" y2="67.413" gradientTransform="matrix(-0.6663 -0.526 0.3451 -1.2285 114.2105 241.2527)">
				<stop  offset="0.1931" style="stop-color:#FFB125"/>
				<stop  offset="0.7871" style="stop-color:#DB8E02"/>
			</linearGradient>
			<path class="st14" d="M62.6,98L62.6,98c0-0.5,0.2-1,0.5-1.1l3.4-0.8c0.3,0,0.5,0.3,0.5,0.9l0,0c0,0.5-0.2,1-0.5,1.1l-3.4,0.8
				C62.8,99,62.6,98.6,62.6,98z"/>
			
				<linearGradient id="SVGID_6_" gradientUnits="userSpaceOnUse" x1="108.1963" y1="72.9781" x2="116.4669" y2="72.9781" gradientTransform="matrix(-0.6663 -0.526 0.3451 -1.2285 114.2105 241.2527)">
				<stop  offset="0.1931" style="stop-color:#BBBBBB"/>
				<stop  offset="0.7871" style="stop-color:#909090"/>
			</linearGradient>
			<path class="st15" d="M68.4,90.3c0.1-0.1,0.2,0.2,0.1,0.5l-1.2,3.7c-0.4,1.2-0.9,1.9-1.4,2l-2,0.5c-0.5,0.1-1-0.4-1.4-1.4
				l-1.2-3.1c-0.1-0.2-0.1-0.6,0.1-0.6L68.4,90.3z"/>
		</g>
	</g>
	<g id="Ebene_1_1_">
		<g>
			
				<linearGradient id="SVGID_7_" gradientUnits="userSpaceOnUse" x1="120.5322" y1="85.9346" x2="110.6272" y2="76.0296" gradientTransform="matrix(-0.6663 -0.526 0.3451 -1.2285 114.2105 241.2527)">
				<stop  offset="0.2574" style="stop-color:#FF3A3A"/>
				<stop  offset="0.7525" style="stop-color:#FF703A"/>
			</linearGradient>
			<path class="st16" d="M68.2,76.4c-0.3,1.8-1,1.2-1.2,0.4c-0.7-2.8,0.8-6.1,0.3-6.8c-0.1-0.1-0.3-0.2-0.6,0
				c-0.1,0.1-0.1,0.1-0.2,0.2c-0.7,0.6-1.3,1.6-1.8,2.8c-0.1,0.3-0.2,0.5-0.3,0.9c-0.2,0.8-0.5,1.9-0.9,2c-0.4,0-0.3-1.7-0.6-1.8
				c-0.5-0.1-3.3,10.6-0.8,14.6c2.1,3.2,5.9,1.6,6.9-3.6c0.6-3.5,0.3-6.2,0.2-7.5C69.1,75.6,68.7,74.4,68.2,76.4z"/>
			<path class="st17" d="M63.5,83.5c-0.3,1.6,0,3.3,0.7,3.8c1,0.8,1.8-0.4,2.1-2.5s0.2-3.6-0.2-3.7s-0.3,0.6-0.8,0.5
				c-0.4-0.1-0.3-1.9-0.6-2C64.4,79.5,63.7,82,63.5,83.5z"/>
		</g>
	</g>
</g>
<g id="Ebene_3_1_">
	<g>
		
			<linearGradient id="SVGID_8_" gradientUnits="userSpaceOnUse" x1="52.5373" y1="97.5646" x2="58.4707" y2="97.5646" gradientTransform="matrix(-0.5549 0.646 0.2707 1.487 118.6803 -82.3112)">
			<stop  offset="0.1931" style="stop-color:#AF8A82"/>
			<stop  offset="0.802" style="stop-color:#8E665E"/>
		</linearGradient>
		<path class="st18" d="M111.8,96.3l5.3,8.2c0.1,0.1,0.2-0.3,0.1-0.5l-4-13.5"/>
		
			<linearGradient id="SVGID_9_" gradientUnits="userSpaceOnUse" x1="55.1847" y1="90.401" x2="58.4097" y2="95.9869" gradientTransform="matrix(-0.5549 0.646 0.2707 1.487 118.6803 -82.3112)">
			<stop  offset="0.1931" style="stop-color:#FFB125"/>
			<stop  offset="0.7871" style="stop-color:#DB8E02"/>
		</linearGradient>
		<path class="st19" d="M111.2,97.6L111.2,97.6c-0.2-0.5-0.2-1.3-0.1-1.9l1.8-7.3c0.1-0.5,0.4-0.6,0.6-0.2l0,0
			c0.2,0.5,0.2,1.3,0.1,1.9l-1.8,7.3C111.6,98,111.4,98.1,111.2,97.6z"/>
		
			<linearGradient id="SVGID_10_" gradientUnits="userSpaceOnUse" x1="53.8865" y1="89.75" x2="63.5296" y2="89.75" gradientTransform="matrix(-0.5549 0.646 0.2707 1.487 118.6803 -82.3112)">
			<stop  offset="0.1931" style="stop-color:#BBBBBB"/>
			<stop  offset="0.7871" style="stop-color:#909090"/>
		</linearGradient>
		<path class="st20" d="M111.7,80.3c0.1-0.3,0.3-0.2,0.3,0.2l0.6,5.3c0.2,1.6,0.2,3.2-0.1,4.3l-1,4.2c-0.3,1.1-0.7,1.7-1.3,1.6
			l-1.8-0.2c-0.1-0.1-0.2-0.5-0.1-0.8L111.7,80.3z"/>
	</g>
</g>
</svg>
