<?xml version="1.0" encoding="utf-8"?>
<!-- Generator: Adobe Illustrator 22.0.1, SVG Export Plug-In . SVG Version: 6.00 Build 0)  -->
<svg version="1.1" xmlns="http://www.w3.org/2000/svg" xmlns:xlink="http://www.w3.org/1999/xlink" x="0px" y="0px"
	 viewBox="0 0 170.1 170.1" style="enable-background:new 0 0 170.1 170.1;" xml:space="preserve">
<style type="text/css">
	.st0{fill:url(#SVGID_1_);}
	.st1{fill:url(#SVGID_2_);}
	.st2{fill:url(#SVGID_3_);}
</style>
<g id="Ebene_3">
	<g>
		<linearGradient id="SVGID_1_" gradientUnits="userSpaceOnUse" x1="48.8496" y1="127.3169" x2="78.4829" y2="127.3169">
			<stop  offset="0.1931" style="stop-color:#AF8A82"/>
			<stop  offset="0.802" style="stop-color:#8E665E"/>
		</linearGradient>
		<path class="st0" d="M62.2,105.4l-13.3,42.8c-0.3,0.8,0.8,1.4,1.3,0.7l28.3-34.7"/>
		<linearGradient id="SVGID_2_" gradientUnits="userSpaceOnUse" x1="64.9665" y1="96.314" x2="78.2403" y2="119.3049">
			<stop  offset="0.1931" style="stop-color:#FFB125"/>
			<stop  offset="0.7871" style="stop-color:#DB8E02"/>
		</linearGradient>
		<path class="st1" d="M80.2,116.3l-20.5-11.1c-1.6-0.9-2.2-2.9-1.4-4.6l0,0c0.9-1.6,2.9-2.2,4.6-1.4l20.5,11.1
			c1.6,0.9,2.2,2.9,1.4,4.6v0C83.9,116.6,81.9,117.2,80.2,116.3z"/>
		<linearGradient id="SVGID_3_" gradientUnits="userSpaceOnUse" x1="59.6164" y1="93.9301" x2="102.7366" y2="93.9301">
			<stop  offset="0.1931" style="stop-color:#BBBBBB"/>
			<stop  offset="0.7871" style="stop-color:#909090"/>
		</linearGradient>
		<path class="st2" d="M102.1,100c0.9,0.5,0.8,1.7,0,2.1l-12.4,6.2c-3.9,1.9-7.8,2.1-11,0.4l-11.8-6.4c-3.1-1.7-5.2-5.1-5.7-9.4
			l-1.6-13.8c-0.1-1,0.9-1.7,1.8-1.2L102.1,100z"/>
	</g>
</g>
<g id="Ebene_1">
</g>
</svg>
