<?xml version="1.0" encoding="utf-8"?>
<!-- Generator: Adobe Illustrator 22.0.1, SVG Export Plug-In . SVG Version: 6.00 Build 0)  -->
<svg version="1.1" id="Ebene_1" xmlns="http://www.w3.org/2000/svg" xmlns:xlink="http://www.w3.org/1999/xlink" x="0px" y="0px"
	 viewBox="0 0 170.1 170.1" style="enable-background:new 0 0 170.1 170.1;" xml:space="preserve">
<style type="text/css">
	.st0{fill:url(#SVGID_1_);}
	.st1{fill:#FFFFFF;}
</style>
<linearGradient id="SVGID_1_" gradientUnits="userSpaceOnUse" x1="60.3274" y1="126.1536" x2="109.7513" y2="76.7297">
	<stop  offset="0.1436" style="stop-color:#FFAD4C"/>
	<stop  offset="0.9287" style="stop-color:#ED9124"/>
</linearGradient>
<path class="st0" d="M52.2,115.8h65.6c4.4,0,7-4.9,4.6-8.5L89.7,56.8c-2.2-3.4-7.1-3.4-9.3,0l-32.8,50.4
	C45.2,110.9,47.8,115.8,52.2,115.8z"/>
<g>
	<path class="st1" d="M85,103c-1.3,0-2.2-0.9-2.2-2.2c0-1.3,0.9-2.2,2.2-2.2c1.3,0,2.2,0.9,2.2,2.2C87.3,102.1,86.4,103,85,103z
		 M83.3,93.6c0-1-0.1-15.9-0.1-16.7c0-0.6,0-0.9,0.3-1.2c0.3-0.4,0.9-0.6,1.6-0.6s1.3,0.2,1.6,0.6c0.2,0.3,0.3,0.6,0.3,1.2
		c0,0.8-0.1,15.7-0.1,16.7c0,0.9-0.4,1.6-1.7,1.6S83.4,94.5,83.3,93.6z"/>
</g>
</svg>
