<?xml version="1.0" encoding="utf-8"?>
<!-- Generator: Adobe Illustrator 22.0.1, SVG Export Plug-In . SVG Version: 6.00 Build 0)  -->
<svg version="1.1" id="Ebene_1" xmlns="http://www.w3.org/2000/svg" xmlns:xlink="http://www.w3.org/1999/xlink" x="0px" y="0px"
	 viewBox="0 0 170.1 170.1" style="enable-background:new 0 0 170.1 170.1;" xml:space="preserve">
<style type="text/css">
	.st0{fill:url(#SVGID_1_);}
	.st1{fill:url(#SVGID_2_);}
	.st2{opacity:0.24;fill:#5E381E;}
	.st3{fill:#999999;}
</style>
<linearGradient id="SVGID_1_" gradientUnits="userSpaceOnUse" x1="-38.7171" y1="104.7537" x2="38.7958" y2="239.0101" gradientTransform="matrix(1 0 0 -1 85 256.9213)">
	<stop  offset="0" style="stop-color:#6F3FAF"/>
	<stop  offset="0.2403" style="stop-color:#919DFC"/>
	<stop  offset="1" style="stop-color:#92A1FF"/>
</linearGradient>
<circle class="st0" cx="85" cy="85" r="77.5"/>
<linearGradient id="SVGID_2_" gradientUnits="userSpaceOnUse" x1="60.678" y1="131.9271" x2="111.3116" y2="44.2271">
	<stop  offset="0" style="stop-color:#784623"/>
	<stop  offset="1" style="stop-color:#895734"/>
</linearGradient>
<path class="st1" d="M96.1,142.5c-27.2,4.3-36.8-14.6-41.3-36.8l-9.3-37.4C45,66.2,45.1,64,46,62c0.7-1.5,1.8-2.9,3.8-3.4
	c4.7-1.2,6.7,4.8,6.7,4.8L61.8,86c0,0,0.2,2.1,2,1.8c1.7-0.3,1.4-3.1,1.4-3.1L57,48c0,0-0.7-6.2,5.3-7.4c5.9-1.2,6.9,4.4,6.9,4.4
	l8.7,38c0,0,0.8,1.8,2.5,1.5s1-2,1-2L71.1,35.2c0,0,0-5.4,5.3-6.4c5.3-1.1,6.3,2.9,6.3,2.9l11.5,48c0,0,0.4,1.1,1.6,0.9
	c0.3-0.1,0.5-0.2,0.7-0.4c0.6-0.5,0.8-1.3,0.7-2.1l-7.1-35.4c0,0,0.2-4.8,5.2-5.8s6.2,3.1,6.2,3.1l11.6,45.5
	c0.3,1.2,1.8,1.9,2.8,1.2c0.2-0.1,0.4-0.3,0.6-0.6c2.8-4.9,7-17.2,12.3-18.3c6.7-1.4,9.2-0.7,9.9,2.8c0.5,2.5-1.2,5.5-3,7.8
	c-2.6,3.3-4.5,7-5.5,11.1c0,0-5.7,23-6.1,24.5C121,124.4,115,138.6,96.1,142.5z"/>
<path class="st2" d="M115,87c-13.3,7.3-17.8,33.3-17.8,33.3S95,90,112.8,84.2C112.8,84.2,112.8,87,115,87z"/>
<g>
	<path class="st3" d="M37.5,69.1c0.6,4.1,1.1,8,1.8,11.9c0.7,3.9,1.5,7.7,2.6,11.4c0.5,1.9,1.1,3.7,1.7,5.5c0.3,0.9,0.7,1.8,1,2.7
		l0.5,1.4c0.2,0.5,0.4,0.9,0.6,1.3c0.4,0.9,0.8,1.8,1.1,2.7c0.4,0.9,0.9,1.7,1.3,2.6c0.2,0.4,0.4,0.9,0.6,1.4
		c0.2,0.4,0.5,0.9,0.7,1.3c0.5,0.9,1,1.8,1.4,2.7c-0.9-0.6-1.7-1.2-2.5-1.9c-0.4-0.3-0.8-0.7-1.2-1c-0.4-0.4-0.7-0.7-1.1-1.1
		c-0.7-0.8-1.4-1.5-2.1-2.3c-0.6-0.8-1.2-1.7-1.8-2.6c-0.3-0.4-0.6-0.9-0.9-1.3l-0.7-1.4c-0.5-0.9-1-1.9-1.4-2.8L38,96.7
		c-0.4-1-0.6-2-0.9-3c-1.1-4-1.7-8.2-1.7-12.4C35.5,77.2,36.1,73,37.5,69.1z"/>
</g>
<g>
	<path class="st3" d="M25.4,57.8c-0.1,6.5,0.1,12.6,0.8,18.5c0.6,5.9,1.7,11.7,3.3,17.2c1.6,5.6,3.8,10.9,6.6,16.1
		c1.4,2.6,3,5.1,4.6,7.7c1.7,2.6,3.5,5.1,5.4,7.8c-3-1.2-5.9-2.8-8.6-4.7c-2.6-2-5.1-4.2-7.3-6.7c-4.3-5.1-7.6-11.2-9.4-17.6
		c-1.9-6.5-2.4-13.2-1.7-19.8c0.4-3.3,1-6.5,2.1-9.6C22.2,63.5,23.6,60.5,25.4,57.8z"/>
</g>
<g>
	<path class="st3" d="M106,37.1c2.2,1.3,4,3.1,5.5,5.1c1.6,2,2.9,4.2,3.8,6.5c1,2.3,1.6,4.8,1.8,7.4c0.3,2.5-0.1,5.1-0.8,7.5
		c-0.5-2.5-0.8-4.8-1.5-7.1c-0.6-2.3-1.3-4.5-2.3-6.6c-0.9-2.2-1.9-4.3-3-6.4C108.5,41.4,107.3,39.3,106,37.1z"/>
</g>
<g>
	<path class="st3" d="M107.5,27.2c3.7,1.3,7,3.7,9.7,6.6c2.7,2.9,5,6.3,6.5,10.1c1.5,3.8,2.2,7.8,2.1,11.8c-0.2,4-1.2,7.9-3.1,11.4
		c-0.2-3.9-0.3-7.6-0.8-11.2c-0.6-3.5-1.5-6.9-2.9-10.2c-1.3-3.3-3-6.4-4.9-9.5C112.3,33.2,110.1,30.2,107.5,27.2z"/>
</g>
</svg>
